/* XPM */
static char * cry_xpm[] = {
"40 40 185 2",
"  	c #FFC0CB",
". 	c #000000",
"+ 	c #FFFFFF",
"@ 	c #FEFBFF",
"# 	c #000003",
"$ 	c #010000",
"% 	c #000005",
"& 	c #E5E5E3",
"* 	c #141414",
"= 	c #131313",
"- 	c #1E1910",
"; 	c #E7C22B",
"> 	c #E6C51D",
", 	c #E6C51B",
"' 	c #383114",
") 	c #FFFFFA",
"! 	c #FEFCFE",
"~ 	c #FCFAFD",
"{ 	c #F7CF18",
"] 	c #FDF9A2",
"^ 	c #FDFBFF",
"/ 	c #FEFEFA",
"( 	c #FFFFF9",
"_ 	c #FCFCFC",
": 	c #FFFDFF",
"< 	c #F8FDFE",
"[ 	c #020208",
"} 	c #FEF300",
"| 	c #000501",
"1 	c #FFFCFF",
"2 	c #121412",
"3 	c #FED300",
"4 	c #FFF600",
"5 	c #FFF002",
"6 	c #FEF200",
"7 	c #FFF300",
"8 	c #FCF400",
"9 	c #010102",
"0 	c #121312",
"a 	c #F6F02B",
"b 	c #F8F02A",
"c 	c #F2EB3B",
"d 	c #1E1500",
"e 	c #FEEF06",
"f 	c #FEF102",
"g 	c #F6EA1B",
"h 	c #F9F124",
"i 	c #F9F129",
"j 	c #FDFDFD",
"k 	c #1A160C",
"l 	c #F3EA20",
"m 	c #F5EC19",
"n 	c #EBE726",
"o 	c #070700",
"p 	c #FCF200",
"q 	c #FEF006",
"r 	c #FFF100",
"s 	c #FEF203",
"t 	c #0F0500",
"u 	c #0B0500",
"v 	c #FDFDFE",
"w 	c #030000",
"x 	c #E8C71E",
"y 	c #FBD302",
"z 	c #FFEF04",
"A 	c #010200",
"B 	c #020000",
"C 	c #0E0700",
"D 	c #FFEE0A",
"E 	c #FFF200",
"F 	c #FFF005",
"G 	c #FFF102",
"H 	c #FFF302",
"I 	c #FFF000",
"J 	c #302400",
"K 	c #000600",
"L 	c #FFEE01",
"M 	c #FED203",
"N 	c #050104",
"O 	c #030001",
"P 	c #E8C81F",
"Q 	c #FCF008",
"R 	c #FDF001",
"S 	c #FFEF00",
"T 	c #FFED05",
"U 	c #FDF304",
"V 	c #FCF202",
"W 	c #FDF106",
"X 	c #FCD307",
"Y 	c #000104",
"Z 	c #040000",
"` 	c #ECC61D",
" .	c #252400",
"..	c #271E00",
"+.	c #242000",
"@.	c #FEF103",
"#.	c #FFF400",
"$.	c #261F00",
"%.	c #291D00",
"&.	c #FDD208",
"*.	c #000001",
"=.	c #000809",
"-.	c #020700",
";.	c #050400",
">.	c #FEF201",
",.	c #FFEF06",
"'.	c #040700",
").	c #000C05",
"!.	c #EBC523",
"~.	c #FFED00",
"{.	c #00BAEE",
"].	c #F6F700",
"^.	c #FCF107",
"/.	c #FCF300",
"(.	c #FEF100",
"_.	c #F4F516",
":.	c #00BCEF",
"<.	c #FDF200",
"[.	c #FBD20C",
"}.	c #E9C721",
"|.	c #01B6F1",
"1.	c #00B9EA",
"2.	c #08B3F1",
"3.	c #17B1C5",
"4.	c #F8F500",
"5.	c #FFEE08",
"6.	c #43BA93",
"7.	c #05B4ED",
"8.	c #F8D40C",
"9.	c #3A2F0A",
"0.	c #00B8EE",
"a.	c #17B6C6",
"b.	c #FFF003",
"c.	c #312C00",
"d.	c #2D2600",
"e.	c #2D2700",
"f.	c #312700",
"g.	c #3DBAA0",
"h.	c #05B5F5",
"i.	c #FFD104",
"j.	c #2C2300",
"k.	c #FFFEFF",
"l.	c #151114",
"m.	c #050006",
"n.	c #050008",
"o.	c #000201",
"p.	c #FFFEFE",
"q.	c #111213",
"r.	c #000D15",
"s.	c #02B6F6",
"t.	c #01B7EE",
"u.	c #15B8C3",
"v.	c #050001",
"w.	c #040007",
"x.	c #020004",
"y.	c #050007",
"z.	c #FEEF0E",
"A.	c #39BC9C",
"B.	c #01B7F2",
"C.	c #00B8F7",
"D.	c #010203",
"E.	c #FEFEFE",
"F.	c #FDFFFE",
"G.	c #FDFDEF",
"H.	c #000200",
"I.	c #FEEF08",
"J.	c #FFF101",
"K.	c #000101",
"L.	c #FFFEFD",
"M.	c #FCDD00",
"N.	c #FDDB00",
"O.	c #FADB08",
"P.	c #FAFAFA",
"Q.	c #FFFFFC",
"R.	c #000402",
"S.	c #04000D",
"T.	c #090500",
"U.	c #FECF0B",
"V.	c #FBD205",
"W.	c #FAD204",
"X.	c #301F01",
"Y.	c #000401",
"Z.	c #020600",
"`.	c #FFFFFE",
" +	c #FEFFFF",
"                                                                                ",
"                                                                                ",
"            . . . . . . . . . . . . . . . . . . . . . . . . . . . . . .         ",
"            . . . . . . . . . . . . . . . . . . . . . . . . . . . . . .         ",
"        . . . . + + + + + + + + @ # $ $ $ $ % & + + + + + + + + + + . . . .     ",
"        . . . . + + + + + + * = - ; > > > > , ' = = + + + + + + + + . . . .     ",
"    . . . . + + + + + ) ! ~ { { { ] ] ] ] ] ] { { { ^ / ( + + + + + + + . . . . ",
"    . . . . + + + + _ : < [ ] ] ] } } } } } } ] ] ] | . 1 + + + + + + + . . . . ",
"    . . + + + + + + + 2 { 3 4 4 4 4 5 6 7 } 8 4 4 4 4 { 9 + + + + + + + + + . . ",
"    . . + + + + + + + 0 { } a b c d e f } 6 d g h i 4 { 9 + + + + + + + + + . . ",
"    . . + + + + + + j k { } l m n o p q r s t g g g 4 { u v + + + + + + + + . . ",
"    . . + + + + + + w x y z A B C D E F G H I J B K L } M N + + + + + + + + . . ",
"    . . + + + + + + O P } G s Q R S r r r G T U V W S } X Y + + + + + + + + . . ",
"    . . + + + + + + Z ` } G  ...+.+.p 6 @.#.+.+.$.%.z } &.*.+ + + + + + + + . . ",
"    . . + + + + + + Z ` } E =.-.;.;.G >.,.4 ;.;.'.).5 } &.*.+ + + + + + + + . . ",
"    . . + + + + + + Z !.} ~.{.].S ^.r r r r /.(._.:.<.} [.*.+ + + + + + + + . . ",
"    . . + + + + + + Z }.} |.1.2.3.4.r r r r 5.6.7.|.|.} 8.*.+ + + + + + + + . . ",
"    . . + + + + + + . 9.8.|.0.0.a.b.c.d.e.f.5 g.0.0.h.i.j.. + + + + + + + + . . ",
"    . . + + + + + + k.l.8.|.0.0.a.b.m.O B n.5 g.0.0.|.i.o.p.+ + + + + + + + . . ",
"    . . + + + + + + + q.r.i.s.t.u.].v.w.x.y.z.A.B.C.i.i.D.E.+ + + + + + + + . . ",
"    . . . . + + + + + F.G.H.} ].].<.I.5 5 J.I } ].} K.. L.+ + + + + + + . . . . ",
"    . . . . + + + + + + E.. i.i.i.M.N.N.N.N.O.i.i.i.. P.+ + + + + + + + . . . . ",
"        . . . . + + + + + Q.R.S.T.U.V.V.V.V.W.X.Y.Z.+ + + + + + + + . . . .     ",
"        . . . . + + + + + + `. +% . . . . . *.. `.+ + + + + + + + + . . . .     ",
"            . . . . . . . . . . + + + + + + + + . . . . . . . . . . . .         ",
"            . . . . . . . . . . + + + + + + + + . . . . . . . . . . . .         ",
"                            . . + + + + + + . . . .                             ",
"                            . . + + + + + + . . . .                             ",
"                        . . + + + + + + . .                                     ",
"                        . . + + + + + + . .                                     ",
"                    . . + + + + + + . .                                         ",
"                    . . + + + + + + . .                                         ",
"                    . . + + + + . .                                             ",
"                    . . + + + + . .                                             ",
"                    . . . . . .                                                 ",
"                  . . . . . . .                                                 ",
"                  . .                                                           ",
"              . .                                                               ",
"              . .                                                               ",
"                                                                                "};
