/* XPM */
static char * floor1_1_xpm[] = {
"40 40 13 1",
" 	c #564132",
".	c #6C4834",
"+	c #4A3C32",
"@	c #8A5034",
"#	c #403630",
"$	c #382623",
"%	c #4C3324",
"&	c #251923",
"*	c #6F513D",
"=	c #B08B5A",
"-	c #231919",
";	c #815C41",
">	c #0E0D10",
"     .+.     .+. +..+..      .+. +..+.. ",
".  ..+ +.  ..+ ++ @. +. .  ..+ ++ @. +. ",
"+   +.. +   +..  + . +..+   +.. #+ . +..",
"     +..     +..  $%% #.     +..## .. #.",
"  .$     .+. +..+..      .+. +..+.. ##  ",
"  $&.  ..+ ++ @. +. .  ..+ ++ @. +.     ",
"  $&+   +..  + . +..+   +.. #+ . +..+ . ",
"         +..  $%% #.     +..## .. #.+.. ",
".  .  .$&%%# $&*=%    ...+##-#  ##   +. ",
"+     $&*;;%.$&&&      .   ;-% +     +..",
"      $&*=%+..$$+ .       ;->%  + . . #.",
"  .$ . $&&% ++#.  +. . ##=-+&%#.  +.##  ",
"  $&. . +..   .#.  +##;;--$*$&%%## +    ",
"  $&+..# +@$&% .#.  #;--$**$>>>&&###+ . ",
" . $ ##   $&*;= +    #; ;&$>&&&&##    +.",
". .      #$&*;%.# #      ;&>%#&## # ## +",
"+..# .# +..$&= .#  # .# +.;&%  .#  #&###",
" ## ..++.+. $&   +#...++.+.&%    +#.##  ",
"     # .@.++# + + +  # .@.#+# + + + # # ",
" .#      +..  +#.        +..  +#.   #  #",
"..++     .+. +..+..      .+. +%.+..  +#.",
" # ..  ..+ ++ @. +. .  ..+ -+  . +. + + ",
"    +   +..  + . +..+   +.-;%    +...   ",
"         +..%% .. #.   - -  %   . #.+.. ",
".  .  ...+##;;% ##    .-.+## $  ##   +. ",
"+      .   +**;%      -;%  +$;%+     +..",
"           **=%$+ .   $;%  $ ;% + . . #.",
"  .. .  +**;;$*.  +. .-$;. - ;%.  +.##  ",
"   .& . *;=$%%.#.  +. -$;..-+;%#.  +    ",
"    +&.;=$%%*  .#.  +.$$;+$-$ ;%#.  + . ",
" .   #&&%%*..   +    #-$; --$ ;%+     +.",
"& .   +$*#  .# .# #  -$;%#  -$ .# # .  +",
"+&.; .# +..    .#  # $$ ;%.  % .#  ##.  ",
" #&&..++.+.      +#...++;%.  %%  +#.+   ",
"  +$ # .@.++# + + +  # .@.++%;% + + # # ",
" .#      +..  +#.        +..  +#.   #  #",
"..++     .+. +..+..      .+. +..+..  +#.",
" # .@.++ # .@.++# + + +  # .@.++%;% + + ",
"     +..     +..  +#.        +..  +#.   ",
"     .+.     .+. +..+..      .+. +..+.. "};
