/* XPM */
static char * floor_resized_xpm[] = {
"40 40 115 2",
"  	c #291821",
". 	c #2D1A22",
"+ 	c #3D2229",
"@ 	c #45272C",
"# 	c #361F26",
"$ 	c #331D25",
"% 	c #3C2428",
"& 	c #43262B",
"* 	c #382227",
"= 	c #321D25",
"- 	c #2C1A22",
"; 	c #331E25",
"> 	c #3A2327",
", 	c #3A2328",
"' 	c #3B2428",
") 	c #351F26",
"! 	c #2A1821",
"~ 	c #392227",
"{ 	c #4B282F",
"] 	c #44262B",
"^ 	c #3A2227",
"/ 	c #382027",
"( 	c #40252A",
"_ 	c #321D24",
": 	c #46272C",
"< 	c #3E2329",
"[ 	c #2F1C23",
"} 	c #2F1B23",
"| 	c #311C24",
"1 	c #351E26",
"2 	c #3F2529",
"3 	c #42262B",
"4 	c #301C24",
"5 	c #341E25",
"6 	c #47262D",
"7 	c #47272C",
"8 	c #2E1B23",
"9 	c #392327",
"0 	c #3B2328",
"a 	c #4B282E",
"b 	c #48282D",
"c 	c #49282E",
"d 	c #47272D",
"e 	c #301D24",
"f 	c #3D2329",
"g 	c #362026",
"h 	c #3D2429",
"i 	c #392127",
"j 	c #3E2429",
"k 	c #41262A",
"l 	c #4A282E",
"m 	c #49282D",
"n 	c #301C23",
"o 	c #4F2930",
"p 	c #4E2930",
"q 	c #4C292F",
"r 	c #41252A",
"s 	c #382127",
"t 	c #40242A",
"u 	c #4D2930",
"v 	c #4D292F",
"w 	c #3C2328",
"x 	c #2C1922",
"y 	c #3A2228",
"z 	c #502A31",
"A 	c #4A272E",
"B 	c #301D23",
"C 	c #3B2228",
"D 	c #3A2128",
"E 	c #45252C",
"F 	c #341F25",
"G 	c #392027",
"H 	c #3C2228",
"I 	c #48272D",
"J 	c #3C2129",
"K 	c #371F27",
"L 	c #2B1921",
"M 	c #2B1922",
"N 	c #46262D",
"O 	c #42262A",
"P 	c #3E2529",
"Q 	c #45262C",
"R 	c #382226",
"S 	c #41242A",
"T 	c #44262C",
"U 	c #372026",
"V 	c #3D2428",
"W 	c #42252B",
"X 	c #372126",
"Y 	c #4C282F",
"Z 	c #44252C",
"` 	c #372027",
" .	c #321E25",
"..	c #351F25",
"+.	c #43252B",
"@.	c #341E26",
"#.	c #3F2329",
"$.	c #4D282F",
"%.	c #44242C",
"&.	c #352026",
"*.	c #311D24",
"=.	c #3B2128",
"-.	c #42252A",
";.	c #46272D",
">.	c #41242B",
",.	c #301B24",
"'.	c #46262C",
").	c #3F242A",
"!.	c #3D2228",
"~.	c #46252D",
"{.	c #49272E",
"].	c #43242B",
"^.	c #351E25",
"/.	c #392128",
"(.	c #2A1921",
"      . + @ # $ % & * = -       = ; > , ' ) = > ! !   - = ~ { % ] ^ / ( _       ",
"    ! # & ] : @ @ @ @ < [ - } | ; 1 $ / & 2 % % 3 ~ 4 [ 5 6 7 @ @ @ : ] & ;     ",
"    8 9 0 3 a b @ @ c d 2 ' e 5 0 f g $ f @ @ @ h > i j k l m @ @ m l k , > -   ",
"    n g < k ] o c l p q q 3 2 ' > = $ g r : @ @ ( s t c c : u l l v k @ w g 8   ",
"  x y 0 & k ] o z z z z z q : ( g s f r A q a @ B 8 C c z q o z z v k @ 3 # D ! ",
"  - 2 & @ @ a o z p l z z z v q E ' ( c z z z @ F 4 g ] z z z z z o l @ @ t G } ",
"    } H @ a o z z u @ & I c p z : & : p z z b @ l 4 _ I l J K : o b o u u 3 5 L ",
"    M g ' 3 p z z o N g ' O u z @ & P l z z o o : p l @ @ h > ' % h b z z o Q ! ",
"  = # ( @ 2 & o z z z d r q z z p % 3 z z o p o z z o o l @ j % @ & 2 c z z 7 ' ",
"  ^ I z z z b v p o u p l { o p u p z z z I P ] p o a c z z z z z z v l u o @ R ",
"  x S q p z v 3 @ I @ I p l { @ @ @ { p q d d I b u @ I q l c q q z p d & I C   ",
"    } H T a 3 2 ( ~ @ @ : c : @ @ r i : @ @ u z z p c c c 2 ' ( f a d ( ( U _   ",
"    ! $ r f , ] ) 5 2 2 ( d a @ ] j U ^ 2 & u z l z z z z c V ' + W y 2 w . x   ",
"  ! . _ k w ) h s X F X ( q c Y a % Q Z k ] d I Y c z z z z l ' @ 3 U s U M     ",
"  ! ; w ] c A { & l j r I : @ : o & I o u d P q o q 7 l z z z & u v { & > f .   ",
"  ! ` m c q z z o o { ( ' O V ] : o o z z o p o z o o o z z d p z z z l l I 0 ! ",
"  - j @ @ q z z o z o d ' 3 @ @ z u I z z z z z z p b l 2 3 p z o z z a @ @ % ! ",
"  - w & l p Y u @ p v l l v z z z p I q o z z z z z z I & v z z @ v q p I r $   ",
"  ! ; ~ T d 2 ] ] ] z z z z z z z z { & m q o q z z z z z z z z I & ( I 3  .!   ",
"    } ` @ c c @ ] @ q z z z z z z z z v 7 I p l z z z z z z z z o @ c c & _     ",
"    ! ..@ p z a a l q v v { c o l z z z v p z z z z z z z z l c o 7 z z c ` !   ",
"      e % @ p z o v v l l : a o { 3 I { z z z z z z v { d : ( / d ( l z p +.U   ",
"    M / & P @ o z z o p p u o z : % d p z z z z o 7 S + ] ] % r ] k ( l z I % ! ",
"| 5 & I o p : o z z z z l q z z o p o z z z z z o o p l l o p o o o { c z I % ! ",
"| @.] c o z o @ @ q @ c o z z z o o o z z z z z z z o l l p p o o z o l ] & .   ",
"  L / W I u @ V 3 0 @ @ b p p o @ { : p z z z z z o c O & P ' 3 W u l ( ( | !   ",
"  e ' ~ #.t 0 ] X @.k k 2 I & { k ( V W E $.l %.q c r l q 3 ' ' / & f 2 h [ ;   ",
"  s j 2 d #., ( &.g U * ( k % ] & ' j F _ 6 3 *.H =.I a @ @ ] ' @ -.g 0 y &.;   ",
"  1 & @ u q d ;.r T y f @ j 2 ] o d d j j a Y d g U m ] @ @ u r a l Q >.( T g   ",
"  ~ 3 p z z z z q o m r 2 ' h j I I d @ @ d p z k k 2 % j 3 d Y z z z p q p ] 4 ",
"! % ] l z z z z z z o @ ' ' ) > @ -.D @ @ @ u z u l ' ' ' k Y o z z z z z z 7 ^ ",
"! ' P c z z z z : z q @ 2 r % > % & s D @ / W o @ d a ] ] ] u z z z z z z z 7 ' ",
"| 5 h m o b @ @ z z q @ @ ] ] % ] % % s s % % ] z z z o o b p z z p b z z o : ' ",
"  g 5 j l u u @ z o { : & P @ @ @ z o u u u o d Y z o l a z z z z z z z z r R ~ ",
"  ! ,./ k ] O I o a d '.j ( I ).!.l l : : @ a q % { E & d 6 ~.{.q q v z z r - 8 ",
"    M &.' k ( l l @ : 0 0 ^ > D *.s ( & @ @ @ @ & h ; f k C g ; H f @ z z r [   ",
"    } &.' U G ] ] 3 v ;.f D T @ ' ].T 0 0 & @ @ o T y y : a j ! U &.^.+.c 2 X   ",
"  M ^ t j X = K / P z z '.j ( j c z p {.t k @ @ o ( 0 f v z l g F F F U k 3 % ! ",
"  L g ] d h ~ = = > /.3 + } - ; P ( 7 & % U 1 % j _ M ,.t 7 ( ' ~ ~ > > ( 2 [   ",
"      ! } * 5 !   !   ! !       (.= ) ' g x 4 = !       ! ! ! ! (.5 s 8 ! !     "};
