/* XPM */
static char * GEnemyDir1_xpm[] = {
"40 40 18 1",
" 	c #FFC0CB",
".	c #000000",
"+	c #A5A5A5",
"@	c #707070",
"#	c #BFBFBF",
"$	c #496B41",
"%	c #33462F",
"&	c #5F8357",
"*	c #E2E2E2",
"=	c #283A4C",
"-	c #415B74",
";	c #BBBBBB",
">	c #CDCDCD",
",	c #A4A4A4",
"'	c #8D8043",
")	c #413621",
"!	c #6D5A35",
"~	c #4C3D20",
"                                        ",
"                                        ",
"                                        ",
"                                        ",
"                                        ",
"                                        ",
"                                        ",
"                                        ",
"                ........                ",
"               .+@+##@@@..              ",
"              .+##@#@+@#@@.             ",
"              .@###@+##@+@@.            ",
"             .+#@#@+@#@+@#@.            ",
"             .###@+##@+##@@@.           ",
"             .@#@+@#@+@#@+@@.           ",
"             .#@+##@+##@+@@..           ",
"             .@+@#@+@#@+@@.$.           ",
"             .+##@+##@+##@..            ",
"             .@#@+@#@+@#@@..            ",
"             .#@+##@+##@@@.%...         ",
"              .+@#@+@#@@@..%&&.         ",
"              .##@+##@+@.*....          ",
"              .#@+@#@+@@..&.            ",
"               .+##@+##@...             ",
"                .........               ",
"                  .=====.               ",
"                 .----;-=.              ",
"                .--==.>-;.              ",
"                 .....=->.              ",
"                 .#,.%===.              ",
"                .'''.&&$.               ",
"                .##.&&&$.               ",
"                 ...%&&.                ",
"                 .).)%%.                ",
"                .!!.!!~.                ",
"                .!...!!~.               ",
"               .&$.  .$$.               ",
"               .&.    .$&..             ",
"                ..     .&&.             ",
"                        ..              "};
