/* XPM */
static char * goblin75_xpm[] = {
"75 75 10 1",
" 	c #FFC0CB",
".	c #252525",
"+	c #9D9F23",
"@	c #607F1B",
"#	c #000000",
"$	c #5F4327",
"%	c #9D6144",
"&	c #FFFFFF",
"*	c #7F7F7F",
"=	c #606060",
"                                                                           ",
"                                                                           ",
"                                                                           ",
"                                                                           ",
"                                                                           ",
"                                                                           ",
"                                                  .+                       ",
"                                        ....@@@@. @+                       ",
"                                   @@+@..@+++++@@.@+                       ",
"                               @@@@@@+..@@@++++++@+@@@@..                  ",
"                             @@.@@@.@+.@@@@@+++++@+@@@@++.                 ",
"                            ........@@+.@@@@+++++++@++@@++.                ",
"                          ...........@+..@@@+++++++@++@@+++                ",
"                       .............#@+@@@@@@+++@+++@++++++.               ",
"                      .........@@@...@@@@@@@@@@@+++@@@+++++.               ",
"                     ....@@@..@@@@.....@@@@@+++@@@@@@+++++@.               ",
"                     ...@@@@@..@@@@.....@@@@@@@@@..@@@@@....               ",
"                    ....@@@+@@@..........@.....+@.@@.....@+.               ",
"                   ....@@@++@@@@@@.........##..+++@@@...@+++@              ",
"                 .......@@++@+++@@@........@@..++@@+@....@+++.             ",
"                ...@@.@.@@@@+++++@@.....#......@@@+@@  ..@@++@             ",
"               ...@@......@@@@@@.........#.....@.@++.  ...@@+@             ",
"               ..@..@@@@@@.##....@@@@@@@@.#...@.@++@.  ....@+@.            ",
"              .....@@+++@@ ..##..@@@@@@@@@@##..@+++.    ..#.@..            ",
"             .....@+++++.. .......@@+@++++@@..@@++.     .....+@.           ",
"             ....@@@++@@.   .......@@+@++++@@.@@@.      ..@@+++.           ",
"             ....@@@@@.    ..........@@@+++@..          ..@@+++.           ",
"             ....@..       ........@.........           ...@@++.           ",
"            ....@@@@       ....@@......@@@.@$@           ..@@++.           ",
"            ....@+++      ......@..........$@@.           ..@@+@           ",
"            .....@++      .....$.@...@@@..$@@@@.           ..@+@           ",
"            ....@++@      .#....$$......$$.@+@+@@          @+++@           ",
"             ....++@      .#......$$$$$$$$.@++@++@        .++++@           ",
"           $$...@++       .#....@@..$$$$$..@@@+@++@       .@++++           ",
"           $$...@+@       ......@@...$$$$...@+@+@++       @+@@++           ",
"           .$...@+@        .....++...$$$$.@..++++@+@      @@..@+           ",
"            ....++         .....++@...$$$..@@@+++@@@        ..@+           ",
"             ...++@        ...@@++@...$$....@@@+++@+@      ...@+           ",
"             ...++++       ...@@++@...$$ ....@@+++@++      .@.++           ",
"             ...@+++@      ...@@++@@..$$  .....@+@@++      .@.+            ",
"             ...@+$$+      ...@@+@@@ .      ....@@@++                      ",
"             ...@+$%$      ..@@++@++       ......@@@@                      ",
"              ...@.$%$     &.@@++@++      .....@@@@@.                      ",
"              ...@+.$%$    *.@@++@++      ...@@+@@@.                       ",
"                ... .$%* . *..@&#@++       ..@@@@@@                        ",
"                     .$ *.=&*.&#@+++       ...@@@@                         ",
"                       ..****&..@@+@       ...@@@                          ",
"                        ...****@++@       .....@+@                         ",
"                     ..=*..&**&**&        ...@@@++@                        ",
"                       ......*..@@        .....@+++                        ",
"                       .#*...*=.@          .....@++@@                      ",
"                        ..#*.#*@             ....@@@@+.                    ",
"                       =..#.@.@                ..@@@@++                    ",
"                       ..@@.+@.                ....@@+                     ",
"                       ...@=@.                   .@++                      ",
"                      ...@+@.                                              ",
"                      ...@@.                                               ",
"                     ....@@                                                ",
"                    ..@.@++                                                ",
"                    ....@++@                                               ",
"                    ....@@+@                                               ",
"                     ...@@@@.                                              ",
"                      ...@@@@                                              ",
"                      ..@@@+@+@                                            ",
"                       ..++@@+.                                            ",
"                        .@@@@                                              ",
"                                                                           ",
"                                                                           ",
"                                                                           ",
"                                                                           ",
"                                                                           ",
"                                                                           ",
"                                                                           ",
"                                                                           ",
"                                                                           "};
