/* XPM */
static char * cavernhole_xpm[] = {
"40 40 12 1",
" 	c #191716",
".	c #251923",
"+	c #382623",
"@	c #4C3324",
"#	c #4A3C32",
"$	c #6C4834",
"%	c #8A5034",
"&	c #815C41",
"*	c #B08B5A",
"=	c #000000",
"-	c #403630",
";	c #564132",
" .           .....  .          ..       ",
" .           .....  .          ..       ",
".       ..++....++....    ... .   ..... ",
".   ....++  ++++  ++.++..+..   ...++..+ ",
"     .+.  @#    ##        +..+++.      +",
"###++   #@$#$.@@#%.@+@++++       +@@@++ ",
"#@$@++##@$#@$.#$%&+@@+@+++.+++++++++@+.+",
"#@$#@@+#@$#@.#$%&#@@@@+@++.#++#+#+#+++.+",
"@$$ ##@+$##$.#%*##@+##@++.#@# #@@#+#+.++",
"$$.+#+ @##@% # ###@%+@#@.@@@$  @@$#++.+#",
" .+#+.+###@& $+#@.@$+@@@+.@@& +.@$#$ ++#",
"###$+.@@.@% @+@#@.%$+@$#@.@@$ +.$@@$ +#@",
"$#$#+.@@.%&+@@##$.$+@#$@@+.$& +$@@&& +@$",
"$@.+@+#@.*+@###$@@.+@$.@@$.* #@+.@@$ +@$",
"$@.@#%%@++@###$@@$@@## ..## #$@+.@@&& ##",
".@+#%&#$@@#$%@@@@$&#####%&#####@+.&$& ##",
"$.@#&##$##$%&%.@$%&$$$$%&*@$#.###+.* ##@",
"@.@##@$##$%&*..$%&+.$%&*..@@$@.#$ .* #@#",
"+.@#$&#$$%&*+=.$*+==....==...@.@ $#.#@#&",
".+@$&@#$%*++==.&+=============..@#$.@@$&",
".+#$&#$%#++====+================.@##.@$&",
"+@@$##%&+&+=====================.@@##.$&",
"+@$@#$&+#+=======================.@##.* ",
".@$@#%*+%+=======================.@$$#.#",
".+##%&+#&+=======================.@$#$##",
"+.@$*+#%+========================.@@#$$#",
"#.+%+#%&+=========================.@@$&#",
"#+ +#%&+====== ====================.@$&#",
"$####%&+====  =    ================.$& #",
"$#$#%&+====             ===========.&  @",
"@$ #&+====  =   =  ...    ==========.  @",
"$ # +===     ==   ...      ==========  @",
"$ #+==   ...........  .....  ========  @",
" &+==       ....  +++++++...     ==== @ ",
"#&+   ...  .++...+.++++..++++      == @ ",
"##+  .+++.....++++.....+++..+++...    @@",
"#&+.......+.++-++++++++-+-+-++++++.   @@",
"&&+++++-++-++-+-+-+-+-+#-#-++........   ",
" +#-;#;#;#;-#+#+$+-+;+######...%$##-++++",
"#$$;;#-$;;;;;;;;#$$;;--$;;;;;;;;#$$;;#-$"};
