/* XPM */
static char * sad_xpm[] = {
"40 40 91 1",
" 	c #FFC0CB",
".	c #000000",
"+	c #FFFFFF",
"@	c #010101",
"#	c #FEFEFF",
"$	c #060004",
"%	c #080002",
"&	c #FBD30F",
"*	c #FFD004",
"=	c #FED501",
"-	c #040100",
";	c #000002",
">	c #FEFFF1",
",	c #FBFFFF",
"'	c #FAD600",
")	c #FDF9AF",
"!	c #FFFFFA",
"~	c #030400",
"{	c #080000",
"]	c #FAF500",
"^	c #160F00",
"/	c #F7FFFF",
"(	c #080005",
"_	c #FDF300",
":	c #FAEF07",
"<	c #FEF20A",
"[	c #FFF100",
"}	c #F7D22B",
"|	c #240F00",
"1	c #FCFCFC",
"2	c #000400",
"3	c #FFED0B",
"4	c #FFEA0A",
"5	c #1B1000",
"6	c #F8F8FF",
"7	c #F7EC00",
"8	c #FDD400",
"9	c #FFF200",
"0	c #FCF000",
"a	c #FFF000",
"b	c #F5EE02",
"c	c #FFF303",
"d	c #FBD900",
"e	c #221500",
"f	c #FCF300",
"g	c #000300",
"h	c #020005",
"i	c #040005",
"j	c #FAF30F",
"k	c #FBDA00",
"l	c #FFF002",
"m	c #010500",
"n	c #060300",
"o	c #FDF20C",
"p	c #FFF004",
"q	c #FDEF00",
"r	c #FBD800",
"s	c #FFD300",
"t	c #FEF105",
"u	c #FFEB12",
"v	c #FFF001",
"w	c #FCD900",
"x	c #221600",
"y	c #FFCE00",
"z	c #FDF400",
"A	c #FFF300",
"B	c #FEF500",
"C	c #FFF400",
"D	c #FEF007",
"E	c #FBD301",
"F	c #271400",
"G	c #000301",
"H	c #000200",
"I	c #FCF010",
"J	c #200D00",
"K	c #F9F9F9",
"L	c #FFFCFF",
"M	c #070000",
"N	c #FFF218",
"O	c #000100",
"P	c #000104",
"Q	c #F2F007",
"R	c #FFD303",
"S	c #250F00",
"T	c #FFCF00",
"U	c #FFDE0D",
"V	c #FFD200",
"W	c #F5F5F5",
"X	c #010000",
"Y	c #030005",
"Z	c #FFFFFD",
"                                        ",
"                                        ",
"      ..............................    ",
"      ..............................    ",
"    ....++++++++++@.....++++++++++....  ",
"    ....++++++#$%%&****=--;>,,++++....  ",
"  ....++++++++$'''))))))'''$,,++++++....",
"  ....++++++!$~))){]]]]{)))^$/++++++....",
"  ..++++++++('_{{{:<[[[:{{{}'|1+++++++..",
"  ..++++++++2'_::::3[[[4:::_'56+++++++..",
"  ..++++++++2'____73[[[4____'56+++++++..",
"  ..+++++++.88_9000a[[[b000c_de+++++++..",
"  ..+++++++.8_fghhij[[a{hhh__ke+++++++..",
"  ..+++++++.8_9[[[lm::nopp[q_re+++++++..",
"  ..+++++++.8_9$$$$r]:r$$$$q_re+++++++..",
"  ..+++++++.s_tjjjjuvvjjjjjj_wx+++++++..",
"  ..+++++++.yy]z[[aABBBC99[D_EF+++++++..",
"  ..++++++++G'_[[[[H...I[[[_'JK+++++++..",
"  ..++++++++G'_[[[[H...I[[[_'JK+++++++..",
"  ..++++++++G's[[[[H...I[[[_'JK+++++++..",
"  ....++++++L$M___NOPPPQ__RS$+++++++....",
"  ....++++++++$''__TTTT__''$++++++++....",
"    ....+++++++@..UTTTTVMM.W++++++....  ",
"    ....++++++++++gXXXXYZZ++++++++....  ",
"      ..........++++++++............    ",
"      ..........++++++++............    ",
"              ..++++++..PP              ",
"              ..++++++..PP              ",
"            ..++++++..                  ",
"            ..++++++..                  ",
"          ..++++++..                    ",
"          ..++++++..                    ",
"          ..++++..                      ",
"          ..++++..                      ",
"          ......                        ",
"         .......                        ",
"         ..                             ",
"       ..                               ",
"       ..                               ",
"                                        "};
