/* XPM */
static char * atack_xpm[] = {
"75 75 13 1",
" 	c #FFC0CB",
".	c #FF0000",
"+	c #212025",
"@	c #77C3D3",
"#	c #B7FCF3",
"$	c #272537",
"%	c #B9D0DA",
"&	c #FFFFFF",
"*	c #575E71",
"=	c #F3DE9C",
"-	c #4B2743",
";	c #65244D",
">	c #FFFAED",
"                                                                           ",
"                                                                           ",
"                                                                           ",
"                                                                           ",
"                         ........................                          ",
"                         ........................                          ",
"                       .............................                       ",
"                    ..........+++++++++++++++.........                     ",
"                    ..........+++++++++++++++.........                     ",
"                  .......++++++++++++++++++++++++........                  ",
"                ......+++++++++@@#########@+++++++++......                 ",
"                ......+++++++++@@#########@+++++++++......                 ",
"               ......++++++@##################@@++++++......               ",
"             .....++++++@########$$$$$$$$$$$$####@@++++++....              ",
"             .....++++++@########$$$$$$$$$$$$####@@++++++....              ",
"            ....++++++######$$$$$%%%&&&&&&&&&$$$$###++++++.....            ",
"            ...++++@@####$$$%%&&&&&&&&&&&&&&&&&&%$$$##@+++++...            ",
"            ...++++@@####$$$%%&&&&&&&&&&&&&&&&&&%$$$##@+++++...            ",
"          ...+++++####$$$%%&&&&&&&&&&&&&&&&&&&&&&&&%$$$##++++...           ",
"         ....+++@@###$%%&&&&&&&&&&&&&&&&&&&&&&&&&&&&&&%$$@+++...           ",
"         ....+++@@###$%%&&&&&&&&&&&&&&&&&&&&&&&&&&&&&&%$$@+++...           ",
"       .....++++###$$%&&&&&&&&&&&&&&&&&&&&&&&&&&&&&&&&&&&$+++++....        ",
"       ...+++++###$%%&&&&&&&&&&&&&&&&&&&&&&&&&&&&&&&&&&&&&$$++++...        ",
"       ...+++++###$%%&&&&&&&&&&&&&&&&&&&&&&&&&&&&&&&&&&&&&$$++++...        ",
"      ....+++@@#$$%&&&&&&&&&&&&&&&&&&&&&&&&&&&&&&&&&$$$$$$%%$+++.....      ",
"      ...++++###$$&&&&&&%$$$$$$%%&&&&&&&&&&&&&&&&&&$&&&&&&**$+++++...      ",
"      ...++++###$$&&&&&&%$$$$$$%%&&&&&&&&&&&&&&&&&&$&&&&&&**$+++++...      ",
"      ...+++@##$%%&&&&$$$$$$$$$$$%&&&&&&&&&&&&&&&$$&&&&&&*%%$@@+++...      ",
"    .....+++###$&&&&&$$$$######$$$%%&&&&&&&&&&&&$&&&&&&**%%%$##+++....     ",
"    .....+++###$&&&&&$$$$######$$$%%&&&&&&&&&&&&$&&&&&&**%%%$##+++....     ",
"    ...+++++#$$%&&&$$$###########$$$&&&&&&&&&&$$&&&&&&*%%%%%$##++++...     ",
"    ...+++@@#$$%&&$$$#############$$$&&&&&&&&$&&&&&&**%%%%$$$##@+++...     ",
"    ...+++@@#$$%&&$$$#############$$$&&&&&&&&$&&&&&&**%%%%$$$##@+++...     ",
"    ...+++###$$%$$$###############$$$&&&&&&$$&&&&&&*%%%%%$$$####+++...     ",
"    ...+++###$$%$$################$$$&&&&&$&&&&&&**%%%%$$$######+++...     ",
"    ...+++###$$%$$################$$$&&&&&$&&&&&&**%%%%$$$######+++...     ",
"    ...+++###$$$$$################$$$&&&$$&&&&&&*%%%%%$$$#######+++...     ",
"    ...+++###$$$##################$$$&&$&&&&&&**%%%%$$$#########+++...     ",
"    ...+++###$$$##################$$$&&$&&&&&&**%%%%$$$#########+++...     ",
"    ...+++########################$$$$$&&&&&&*%%%%%$$$##########+++...     ",
"    ...+++#####################$$$$$$&&&&&&**%%%%$$$############+++...     ",
"    ...+++#####################$$$$$$&&&&&&**%%%%$$$############+++...     ",
"    ...+++@@##################$$$=$$$&&&&&*%%%%%$$$############@+++...     ",
"    ...+++++################$$$=====$&&&**%%%%$$$##############++++...     ",
"    ...+++++################$$$=====$&&&**%%%%$$$##############++++...     ",
"    .....+++##################$$$====$$*%%%%%$$$###############+++....     ",
"      ...+++@##################$$$=====$%%%$$$###############@@+++...      ",
"      ...+++@##################$$$=====$%%%$$$###############@@+++...      ",
"      ...++++##################$$$$$====$$$$$################+++++...      ",
"      ....+++@@###############$$$-;;$=====$$$###############@+++.....      ",
"      ....+++@@###############$$$-;;$=====$$$###############@+++.....      ",
"       ...+++++#############$$$--;;;;$$====$$$##############++++...        ",
"       .....++++###########$$$===;;;-$$$=====$############+++++....        ",
"       .....++++###########$$$===;;;-$$$=====$############+++++....        ",
"         ....+++@@#######$$$==>>>=--$$$$$$=$$$###########@+++.....         ",
"         ....+++++#######$$$==>>>=$$$###$$$$$############++++.....         ",
"         ....+++++#######$$$==>>>=$$$###$$$$$############++++.....         ",
"          .....++++@@######$$$===$$$######$###########@+++++....           ",
"            ....++++++######$$$$$$##################++++++.....            ",
"            ....++++++######$$$$$$##################++++++.....            ",
"             .....++++++@#####$$$################@@++++++....              ",
"               ......++++++@##################@@++++++......               ",
"               ......++++++@##################@@++++++......               ",
"                ......+++++++++@@#########@+++++++++......                 ",
"                  .......++++++++++++++++++++++++.......                   ",
"                  .......++++++++++++++++++++++++.......                   ",
"                    ..........+++++++++++++++..........                    ",
"                      ...............................                      ",
"                      ...............................                      ",
"                         .........................                         ",
"                                                                           ",
"                                                                           ",
"                                                                           ",
"                                                                           ",
"                                                                           "};
