/* XPM */
static char * atack1_xpm[] = {
"75 75 12 1",
" 	c #FFC0CB",
".	c #1B1A20",
"+	c #73C5D5",
"@	c #B6FDF3",
"#	c #222034",
"$	c #B9D2DB",
"%	c #FFFFFF",
"&	c #565E72",
"*	c #F5DE9A",
"=	c #4A2242",
"-	c #661D4D",
";	c #FFFAED",
"                                                                           ",
"                                                                           ",
"                                                                           ",
"                                                                           ",
"                                                                           ",
"                                                                           ",
"                                                                           ",
"                              ...............                              ",
"                              ...............                              ",
"                         ........................                          ",
"                      .........++@@@@@@@@@+.........                       ",
"                      .........++@@@@@@@@@+.........                       ",
"                     ......+@@@@@@@@@@@@@@@@@@++......                     ",
"                  ......+@@@@@@@@############@@@@++......                  ",
"                  ......+@@@@@@@@############@@@@++......                  ",
"                ......@@@@@@#####$$$%%%%%%%%%####@@@......                 ",
"               ....++@@@@###$$%%%%%%%%%%%%%%%%%%$###@@+.....               ",
"               ....++@@@@###$$%%%%%%%%%%%%%%%%%%$###@@+.....               ",
"             .....@@@@###$$%%%%%%%%%%%%%%%%%%%%%%%%$###@@....              ",
"             ...++@@@#$$%%%%%%%%%%%%%%%%%%%%%%%%%%%%%%$##+...              ",
"             ...++@@@#$$%%%%%%%%%%%%%%%%%%%%%%%%%%%%%%$##+...              ",
"            ....@@@##$%%%%%%%%%%%%%%%%%%%%%%%%%%%%%%%%%%%#.....            ",
"          .....@@@#$$%%%%%%%%%%%%%%%%%%%%%%%%%%%%%%%%%%%%%##....           ",
"          .....@@@#$$%%%%%%%%%%%%%%%%%%%%%%%%%%%%%%%%%%%%%##....           ",
"          ...++@##$%%%%%%%%%%%%%%%%%%%%%%%%%%%%%%%%%######$$#...           ",
"         ....@@@##%%%%%%$######$$%%%%%%%%%%%%%%%%%%#%%%%%%&&#.....         ",
"         ....@@@##%%%%%%$######$$%%%%%%%%%%%%%%%%%%#%%%%%%&&#.....         ",
"         ...+@@#$$%%%%###########$%%%%%%%%%%%%%%%##%%%%%%&$$#++...         ",
"         ...@@@#%%%%%####@@@@@@###$$%%%%%%%%%%%%#%%%%%%&&$$$#@@...         ",
"         ...@@@#%%%%%####@@@@@@###$$%%%%%%%%%%%%#%%%%%%&&$$$#@@...         ",
"       .....@##$%%%###@@@@@@@@@@@###%%%%%%%%%%##%%%%%%&$$$$$#@@....        ",
"       ...++@##$%%###@@@@@@@@@@@@@###%%%%%%%%#%%%%%%&&$$$$###@@+...        ",
"       ...++@##$%%###@@@@@@@@@@@@@###%%%%%%%%#%%%%%%&&$$$$###@@+...        ",
"       ...@@@##$###@@@@@@@@@@@@@@@###%%%%%%##%%%%%%&$$$$$###@@@@...        ",
"       ...@@@##$##@@@@@@@@@@@@@@@@###%%%%%#%%%%%%&&$$$$###@@@@@@...        ",
"       ...@@@##$##@@@@@@@@@@@@@@@@###%%%%%#%%%%%%&&$$$$###@@@@@@...        ",
"       ...@@@#####@@@@@@@@@@@@@@@@###%%%##%%%%%%&$$$$$###@@@@@@@...        ",
"       ...@@@###@@@@@@@@@@@@@@@@@@###%%#%%%%%%&&$$$$###@@@@@@@@@...        ",
"       ...@@@###@@@@@@@@@@@@@@@@@@###%%#%%%%%%&&$$$$###@@@@@@@@@...        ",
"       ...@@@@@@@@@@@@@@@@@@@@@@@@#####%%%%%%&$$$$$###@@@@@@@@@@...        ",
"       ...@@@@@@@@@@@@@@@@@@@@@######%%%%%%&&$$$$###@@@@@@@@@@@@...        ",
"       ...@@@@@@@@@@@@@@@@@@@@@######%%%%%%&&$$$$###@@@@@@@@@@@@...        ",
"       ...++@@@@@@@@@@@@@@@@@@###*###%%%%%&$$$$$###@@@@@@@@@@@@+...        ",
"       .....@@@@@@@@@@@@@@@@###*****#%%%&&$$$$###@@@@@@@@@@@@@@....        ",
"       .....@@@@@@@@@@@@@@@@###*****#%%%&&$$$$###@@@@@@@@@@@@@@....        ",
"         ...@@@@@@@@@@@@@@@@@@###****##&$$$$$###@@@@@@@@@@@@@@@...         ",
"         ...+@@@@@@@@@@@@@@@@@@###*****#$$$###@@@@@@@@@@@@@@@++...         ",
"         ...+@@@@@@@@@@@@@@@@@@###*****#$$$###@@@@@@@@@@@@@@@++...         ",
"         ....@@@@@@@@@@@@@@@@@@#####****#####@@@@@@@@@@@@@@@@.....         ",
"          ...++@@@@@@@@@@@@@@@###=--#*****###@@@@@@@@@@@@@@@+...           ",
"          ...++@@@@@@@@@@@@@@@###=--#*****###@@@@@@@@@@@@@@@+...           ",
"          .....@@@@@@@@@@@@@###==----##****###@@@@@@@@@@@@@@....           ",
"            ....@@@@@@@@@@@###***---=###*****#@@@@@@@@@@@@.....            ",
"            ....@@@@@@@@@@@###***---=###*****#@@@@@@@@@@@@.....            ",
"             ...++@@@@@@@###**;;;*==######*###@@@@@@@@@@@+...              ",
"             .....@@@@@@@###**;;;*###@@@#####@@@@@@@@@@@@....              ",
"             .....@@@@@@@###**;;;*###@@@#####@@@@@@@@@@@@....              ",
"               ....++@@@@@@###***###@@@@@@#@@@@@@@@@@@+.....               ",
"                ......@@@@@@######@@@@@@@@@@@@@@@@@@......                 ",
"                ......@@@@@@######@@@@@@@@@@@@@@@@@@......                 ",
"                  ......+@@@@@###@@@@@@@@@@@@@@@@++......                  ",
"                     ......+@@@@@@@@@@@@@@@@@@++......                     ",
"                     ......+@@@@@@@@@@@@@@@@@@++......                     ",
"                      .........++@@@@@@@@@+.........                       ",
"                         ........................                          ",
"                         ........................                          ",
"                              ...............                              ",
"                                                                           ",
"                                                                           ",
"                                                                           ",
"                                                                           ",
"                                                                           ",
"                                                                           ",
"                                                                           ",
"                                                                           "};
