/* XPM */
static char * ballom_xpm[] = {
"40 40 3 1",
" 	c #FFC0CB",
".	c #000000",
"+	c #FFFFFF",
"                                        ",
"                                        ",
"      ..............................    ",
"      ..............................    ",
"    ....++++++++++++++++++++++++++....  ",
"    ....+                        +....  ",
"  ....+++                        +++....",
"  ....+                            +....",
"  ..+++                            +++..",
"  ..+                                +..",
"  ..+                                +..",
"  ..+                                +..",
"  ..+                                +..",
"  ..+                                +..",
"  ..+                                +..",
"  ..+                                +..",
"  ..+                                +..",
"  ..+                                +..",
"  ..+                                +..",
"  ..+++                            +++..",
"  ....+                            +....",
"  ....+++                        +++....",
"    ....+                        +....  ",
"    ....+++++++++    +++++++++++++....  ",
"      ..........+    +..............    ",
"      ..........+    +..............    ",
"              ..+    +..                ",
"              ..+   ++..                ",
"            ..++   +..                  ",
"            ..+   ++..                  ",
"          ..++   +..                    ",
"          ..+   ++..                    ",
"          ..+  +..                      ",
"          ..++++..                      ",
"          ......                        ",
"         .......                        ",
"         ..                             ",
"       ..                               ",
"       ..                               ",
"                                        "};
