/* XPM */
static char * blood_xpm[] = {
"40 40 655 2",
"  	c None",
". 	c #7E051A",
"+ 	c #7D091B",
"@ 	c #7A031C",
"# 	c #B2343D",
"$ 	c #E31D2C",
"% 	c #531C22",
"& 	c #63172B",
"* 	c #591824",
"= 	c #5B1B24",
"- 	c #82081F",
"; 	c #6F111A",
"> 	c #DA222D",
", 	c #80091F",
"' 	c #85001B",
") 	c #800A1C",
"! 	c #7B0C1D",
"~ 	c #860114",
"{ 	c #EE1A22",
"] 	c #890111",
"^ 	c #601727",
"/ 	c #790A1D",
"( 	c #8D0519",
"_ 	c #7A0B1B",
": 	c #880015",
"< 	c #900018",
"[ 	c #810318",
"} 	c #F61526",
"| 	c #890110",
"1 	c #910011",
"2 	c #5F1425",
"3 	c #790516",
"4 	c #7A071B",
"5 	c #7D0617",
"6 	c #5D1517",
"7 	c #670F1C",
"8 	c #D6221D",
"9 	c #7B0C1B",
"0 	c #830212",
"a 	c #6B0C1C",
"b 	c #810314",
"c 	c #7B0C1F",
"d 	c #810119",
"e 	c #770C19",
"f 	c #800717",
"g 	c #641321",
"h 	c #5E1826",
"i 	c #8E0018",
"j 	c #8D010C",
"k 	c #F01826",
"l 	c #E22122",
"m 	c #B5252F",
"n 	c #B72C2D",
"o 	c #7B0D1B",
"p 	c #7A0A19",
"q 	c #78091D",
"r 	c #0B0000",
"s 	c #020000",
"t 	c #030A00",
"u 	c #567F1F",
"v 	c #55831E",
"w 	c #53811B",
"x 	c #6FA02D",
"y 	c #769C29",
"z 	c #61A72A",
"A 	c #6EA32B",
"B 	c #6DA922",
"C 	c #6CA722",
"D 	c #6D9528",
"E 	c #E51E25",
"F 	c #E41E29",
"G 	c #6F0719",
"H 	c #7C0720",
"I 	c #7F0318",
"J 	c #7D0417",
"K 	c #75081D",
"L 	c #746341",
"M 	c #577926",
"N 	c #548116",
"O 	c #72A82A",
"P 	c #70A818",
"Q 	c #54841A",
"R 	c #52840D",
"S 	c #57810E",
"T 	c #548710",
"U 	c #6DA824",
"V 	c #74A828",
"W 	c #6CA644",
"X 	c #7F6C24",
"Y 	c #8A0618",
"Z 	c #750A19",
"` 	c #6C0C20",
" .	c #560714",
"..	c #510914",
"+.	c #AF0D1B",
"@.	c #83662A",
"#.	c #687A2C",
"$.	c #655216",
"%.	c #70A725",
"&.	c #70A724",
"*.	c #6CA923",
"=.	c #3E4F26",
"-.	c #568021",
";.	c #7F621E",
">.	c #7B6814",
",.	c #66981E",
"'.	c #6FA91E",
").	c #79A12D",
"!.	c #57941B",
"~.	c #7A0A22",
"{.	c #940018",
"].	c #720B21",
"^.	c #590918",
"/.	c #50171A",
"(.	c #850A24",
"_.	c #0F070C",
":.	c #000800",
"<.	c #DA1F26",
"[.	c #8F5E2C",
"}.	c #746A2C",
"|.	c #5B1B00",
"1.	c #73AA2A",
"2.	c #70A821",
"3.	c #76A428",
"4.	c #040002",
"5.	c #816833",
"6.	c #B73422",
"7.	c #B13D1C",
"8.	c #7C711D",
"9.	c #66AD2D",
"0.	c #6FAB13",
"a.	c #79A13C",
"b.	c #870316",
"c.	c #84011D",
"d.	c #E81D26",
"e.	c #85010F",
"f.	c #000004",
"g.	c #83001D",
"h.	c #6CA826",
"i.	c #7E060E",
"j.	c #890012",
"k.	c #601A00",
"l.	c #74A22C",
"m.	c #56831C",
"n.	c #74A524",
"o.	c #79A128",
"p.	c #090000",
"q.	c #CF272C",
"r.	c #DC2225",
"s.	c #56821A",
"t.	c #79A517",
"u.	c #050C0F",
"v.	c #000209",
"w.	c #000005",
"x.	c #000106",
"y.	c #020001",
"z.	c #7B051B",
"A.	c #140006",
"B.	c #240002",
"C.	c #82001F",
"D.	c #030006",
"E.	c #FC132B",
"F.	c #6CA924",
"G.	c #6BAC1B",
"H.	c #6EAB1F",
"I.	c #8F8E41",
"J.	c #80061C",
"K.	c #000300",
"L.	c #8A0018",
"M.	c #F6181D",
"N.	c #F31724",
"O.	c #C32D30",
"P.	c #D3252E",
"Q.	c #8B010C",
"R.	c #F41628",
"S.	c #EA1D1E",
"T.	c #000000",
"U.	c #060606",
"V.	c #070707",
"W.	c #020203",
"X.	c #0D0301",
"Y.	c #763E09",
"Z.	c #774108",
"`.	c #7B3F08",
" +	c #86010D",
".+	c #E2202E",
"++	c #877A37",
"@+	c #5F9A35",
"#+	c #59731B",
"$+	c #598413",
"%+	c #7C9A1F",
"&+	c #71A419",
"*+	c #79A31E",
"=+	c #6DA924",
"-+	c #649B1C",
";+	c #668949",
">+	c #120000",
",+	c #D12224",
"'+	c #E01F1F",
")+	c #ED1C2D",
"!+	c #DC2228",
"~+	c #EC1B26",
"{+	c #C52128",
"]+	c #0D0D0D",
"^+	c #884D11",
"/+	c #8F4E10",
"(+	c #97520B",
"_+	c #924E09",
":+	c #8A5015",
"<+	c #8C4F09",
"[+	c #934D07",
"}+	c #AE4E00",
"|+	c #6A1009",
"1+	c #D2202C",
"2+	c #EC1F2A",
"3+	c #C32423",
"4+	c #73A522",
"5+	c #6DA720",
"6+	c #74A228",
"7+	c #69A923",
"8+	c #6BAB1D",
"9+	c #551C01",
"0+	c #7C061C",
"a+	c #8E011A",
"b+	c #6F1118",
"c+	c #F51623",
"d+	c #CB221A",
"e+	c #F51A24",
"f+	c #ED171E",
"g+	c #960220",
"h+	c #8C0A16",
"i+	c #010101",
"j+	c #874F18",
"k+	c #934D09",
"l+	c #924B09",
"m+	c #8B5014",
"n+	c #954E09",
"o+	c #914D0A",
"p+	c #E91E1C",
"q+	c #666B2B",
"r+	c #691804",
"s+	c #691200",
"t+	c #517820",
"u+	c #54821D",
"v+	c #50781F",
"w+	c #4E791B",
"x+	c #BF2A22",
"y+	c #5D6F1E",
"z+	c #5F1C01",
"A+	c #9B0013",
"B+	c #E71F27",
"C+	c #C8232D",
"D+	c #EA1B22",
"E+	c #8D0012",
"F+	c #E81D20",
"G+	c #EE1928",
"H+	c #CA2427",
"I+	c #CE2126",
"J+	c #EC192C",
"K+	c #F0172C",
"L+	c #E31F28",
"M+	c #D91F25",
"N+	c #E51E27",
"O+	c #D4222C",
"P+	c #C6242F",
"Q+	c #C62535",
"R+	c #0B0B0B",
"S+	c #723D0C",
"T+	c #7B3F06",
"U+	c #773E05",
"V+	c #773E06",
"W+	c #773C06",
"X+	c #774007",
"Y+	c #9A530B",
"Z+	c #91000B",
"`+	c #B42D2D",
" @	c #825A30",
".@	c #89562E",
"+@	c #9E3A20",
"@@	c #5E7C17",
"#@	c #50771F",
"$@	c #538315",
"%@	c #E12223",
"&@	c #5F7022",
"*@	c #9D3B1E",
"=@	c #C5262D",
"-@	c #E01F29",
";@	c #820817",
">@	c #9A000F",
",@	c #E61D2E",
"'@	c #E71D26",
")@	c #92000E",
"!@	c #4B301F",
"~@	c #4B2C19",
"{@	c #502D12",
"]@	c #71400C",
"^@	c #733F0D",
"/@	c #7E3E0C",
"(@	c #8E4F02",
"_@	c #921F0D",
":@	c #A5391F",
"<@	c #877D2A",
"[@	c #9C7325",
"}@	c #C12926",
"|@	c #704C1D",
"1@	c #5E7E1D",
"2@	c #5E501A",
"3@	c #AE5921",
"4@	c #6B4820",
"5@	c #A81E20",
"6@	c #AC1B26",
"7@	c #BC0F21",
"8@	c #A0111E",
"9@	c #850112",
"0@	c #B7181F",
"a@	c #EE1B28",
"b@	c #B80A12",
"c@	c #050300",
"d@	c #010103",
"e@	c #0E0100",
"f@	c #6C4706",
"g@	c #714803",
"h@	c #734500",
"i@	c #964C07",
"j@	c #AF490F",
"k@	c #8F4C10",
"l@	c #999742",
"m@	c #9C8938",
"n@	c #B1292F",
"o@	c #750C00",
"p@	c #768726",
"q@	c #75101A",
"r@	c #669429",
"s@	c #711404",
"t@	c #770403",
"u@	c #810B17",
"v@	c #631602",
"w@	c #CC2321",
"x@	c #750E1F",
"y@	c #950312",
"z@	c #EE1920",
"A@	c #F11821",
"B@	c #DF252B",
"C@	c #D22930",
"D@	c #D3292C",
"E@	c #D2282B",
"F@	c #D1242B",
"G@	c #D2252E",
"H@	c #020201",
"I@	c #071300",
"J@	c #56762C",
"K@	c #659229",
"L@	c #6D921C",
"M@	c #9D5002",
"N@	c #E11D1A",
"O@	c #AF4B0E",
"P@	c #0F0000",
"Q@	c #010005",
"R@	c #000600",
"S@	c #5D812C",
"T@	c #E1211F",
"U@	c #DF1F1E",
"V@	c #75AA1D",
"W@	c #6FA626",
"X@	c #C03313",
"Y@	c #B8361B",
"Z@	c #607D1B",
"`@	c #EF1A22",
" #	c #810215",
".#	c #E62123",
"+#	c #E32124",
"@#	c #E42028",
"##	c #F81E2A",
"$#	c #EE1D1C",
"%#	c #040405",
"&#	c #080B0A",
"*#	c #568226",
"=#	c #77A422",
"-#	c #6BAB1E",
";#	c #4C8A14",
">#	c #587F29",
",#	c #60764B",
"'#	c #010003",
")#	c #020007",
"!#	c #000700",
"~#	c #010000",
"{#	c #74A523",
"]#	c #74A426",
"^#	c #BD3413",
"/#	c #B13D11",
"(#	c #77A02C",
"_#	c #E81D22",
":#	c #830014",
"<#	c #EE1C22",
"[#	c #E91D22",
"}#	c #E91C27",
"|#	c #E61D28",
"1#	c #CC2A29",
"2#	c #AF3738",
"3#	c #F81521",
"4#	c #D92430",
"5#	c #000003",
"6#	c #000101",
"7#	c #538219",
"8#	c #EB1B27",
"9#	c #769F33",
"0#	c #538708",
"a#	c #558307",
"b#	c #7AA02D",
"c#	c #870013",
"d#	c #910014",
"e#	c #010001",
"f#	c #010100",
"g#	c #85011C",
"h#	c #929440",
"i#	c #72A81B",
"j#	c #79A02F",
"k#	c #840115",
"l#	c #F01929",
"m#	c #EF1928",
"n#	c #EA1B2B",
"o#	c #E91D24",
"p#	c #E02221",
"q#	c #F51720",
"r#	c #59831A",
"s#	c #4F8219",
"t#	c #920019",
"u#	c #840018",
"v#	c #88040B",
"w#	c #582300",
"x#	c #7CA024",
"y#	c #E51A1C",
"z#	c #7BAD15",
"A#	c #8A0512",
"B#	c #5A7F21",
"C#	c #508711",
"D#	c #56860A",
"E#	c #6FAB18",
"F#	c #72AD23",
"G#	c #67B020",
"H#	c #76A61E",
"I#	c #6BA818",
"J#	c #72A31D",
"K#	c #6FA51B",
"L#	c #718838",
"M#	c #ED1D1C",
"N#	c #660619",
"O#	c #588316",
"P#	c #588317",
"Q#	c #70A42A",
"R#	c #73A22A",
"S#	c #5B8B05",
"T#	c #56871B",
"U#	c #528518",
"V#	c #588215",
"W#	c #75A221",
"X#	c #73A421",
"Y#	c #8B0211",
"Z#	c #010306",
"`#	c #010102",
" $	c #010800",
".$	c #588121",
"+$	c #E22020",
"@$	c #E21F20",
"#$	c #6BA212",
"$$	c #70A823",
"%$	c #6EA821",
"&$	c #A99635",
"*$	c #D01F2A",
"=$	c #EC1A26",
"-$	c #20040A",
";$	c #180907",
">$	c #0C0B0F",
",$	c #040404",
"'$	c #72A527",
")$	c #72A526",
"!$	c #6FA920",
"~$	c #72A723",
"{$	c #C62F1B",
"]$	c #4F8715",
"^$	c #641200",
"/$	c #681007",
"($	c #81993A",
"_$	c #4E1E2E",
":$	c #5E1C25",
"<$	c #84872D",
"[$	c #919633",
"}$	c #6FAB23",
"|$	c #6CAB19",
"1$	c #CB2A34",
"2$	c #EE1A23",
"3$	c #CE213A",
"4$	c #020202",
"5$	c #0C1405",
"6$	c #263717",
"7$	c #202E18",
"8$	c #689B1D",
"9$	c #72A71F",
"0$	c #70A81F",
"a$	c #759A43",
"b$	c #A03733",
"c$	c #704719",
"d$	c #6F4819",
"e$	c #6BAA20",
"f$	c #681021",
"g$	c #6D1118",
"h$	c #745D27",
"i$	c #82642A",
"j$	c #7A662B",
"k$	c #AD6929",
"l$	c #AD6928",
"m$	c #B82D3A",
"n$	c #D91D23",
"o$	c #0A0E0B",
"p$	c #041400",
"q$	c #051A00",
"r$	c #507B19",
"s$	c #4C7A16",
"t$	c #638D2A",
"u$	c #70903D",
"v$	c #77A03A",
"w$	c #558421",
"x$	c #71AA28",
"y$	c #66961F",
"z$	c #7A0611",
"A$	c #82051D",
"B$	c #83040E",
"C$	c #C42D38",
"D$	c #72101C",
"E$	c #890019",
"F$	c #791529",
"G$	c #DD1E32",
"H$	c #E81F2A",
"I$	c #DC2134",
"J$	c #E22025",
"K$	c #F31822",
"L$	c #0A0E11",
"M$	c #5C7738",
"N$	c #517A1D",
"O$	c #649427",
"P$	c #6FA128",
"Q$	c #63922B",
"R$	c #6A151C",
"S$	c #518324",
"T$	c #55792C",
"U$	c #6DA223",
"V$	c #669720",
"W$	c #6E1219",
"X$	c #84071C",
"Y$	c #6D1B2A",
"Z$	c #7C0A1E",
"`$	c #860017",
" %	c #E5162A",
".%	c #DE1D24",
"+%	c #E41827",
"@%	c #E11F1C",
"#%	c #070B0B",
"$%	c #4B6535",
"%%	c #507523",
"&%	c #527526",
"*%	c #689327",
"=%	c #5E941E",
"-%	c #651F29",
";%	c #60232C",
">%	c #830816",
",%	c #557917",
"'%	c #71A621",
")%	c #73A81C",
"!%	c #740F1C",
"~%	c #830317",
"{%	c #7C081B",
"]%	c #88021A",
"^%	c #8F0011",
"/%	c #C42B2E",
"(%	c #E1191D",
"_%	c #DE1E26",
":%	c #DE1B22",
"<%	c #E1212B",
"[%	c #5A171C",
"}%	c #58200C",
"|%	c #567420",
"1%	c #689328",
"2%	c #729F1E",
"3%	c #64981A",
"4%	c #830621",
"5%	c #70A61C",
"6%	c #71A526",
"7%	c #82071A",
"8%	c #7D021B",
"9%	c #F0191C",
"0%	c #E61E22",
"a%	c #5C101D",
"b%	c #5C1E09",
"c%	c #537519",
"d%	c #4F771C",
"e%	c #6D9E1F",
"f%	c #7E060F",
"g%	c #69071D",
"h%	c #930013",
"i%	c #770C1B",
"j%	c #810218",
"k%	c #750E19",
"l%	c #780F1B",
"m%	c #6D0C24",
"n%	c #5E1922",
"o%	c #D31D25",
"p%	c #F01A20",
"q%	c #537721",
"r%	c #547D20",
"s%	c #69A022",
"t%	c #6FA724",
"u%	c #5E0E1C",
"v%	c #6A081D",
"w%	c #7A0B18",
"x%	c #890119",
"y%	c #880016",
"z%	c #8E0016",
"A%	c #850411",
"B%	c #E5201F",
"C%	c #6F1208",
"D%	c #617F18",
"E%	c #6BAD25",
"F%	c #760D03",
"G%	c #72091C",
"H%	c #76091B",
"I%	c #880118",
"J%	c #8A001A",
"K%	c #6C0915",
"L%	c #EF1A21",
"M%	c #60151E",
"N%	c #627D35",
"O%	c #739748",
"P%	c #6B0D1A",
"Q%	c #7F031B",
"R%	c #650D26",
"S%	c #651020",
"T%	c #650E20",
"U%	c #85102B",
"V%	c #7C011A",
"W%	c #680D20",
"X%	c #6B0D20",
"Y%	c #660C1D",
"Z%	c #890016",
"`%	c #8C0016",
" &	c #6A0D20",
".&	c #660C1C",
"+&	c #850018",
"@&	c #8A0014",
"#&	c #EC1B23",
"$&	c #611425",
"%&	c #7E0C1E",
"&&	c #860311",
"*&	c #83061D",
"=&	c #80061A",
"-&	c #F61623",
"                              . +         @                                     ",
"                                                                    #           ",
"                                                                    $           ",
"                      % &             * =   -   ;                   >           ",
"                          , ' )             ! ~                   {             ",
"                  ]                   ^ / ( _ :   < [             }             ",
"                                | 1   2 3 4       5   6 7       8               ",
"            9     0   a b c d e f     g h         i       j k l       m n       ",
"            o                   p q r s t u v w x y z A B C D   E F F           ",
"              G       H         I J K L M N O O P Q R S T U V W X               ",
"              Y       Z `        ...+.@.#.$.%.&.*.=.-.;.>.,.'.).!.              ",
"          ~.  {.].    ^./.    (._.:.<.[.}.|.1.2.3.4.5.6.7.8.9.0.a.              ",
"              b.    c.    d.e.f.g.h.i.j.k.l.m.n.o.p.q.    r.s.t.                ",
"          u.v.w.x.y.z.A.B.C.  D.E.F.G.H.I.J.K.L.M.N.  O.P.Q.R.S.S.              ",
"  T.U.V.W.X.Y.Z.`. +.+++@+#+$+%+&+*+=+-+;+>+,+  '+  )+!+~+{+                    ",
"  ]+^+/+(+_+:+<+[+}+|+1+2+3+4+5+6+7+8+9+0+a+b+c+d+e+f+    g+h+                  ",
"  i+j+k+l+m+n+o+k+p+q+r+s+t+u+v+w+x+y+z+A+B+C+D+E+F+G+H+I+J+K+L+M+N+N+O+P+Q+    ",
"  R+S+T+U+V+W+X+Y+Z+`+ @.@+@@@#@$@%@&@*@=@-@;@>@,@'@)@                          ",
"  ]+!@~@{@]@^@/@(@_@:@<@[@}@|@1@2@3@4@5@6@7@8@9@0@a@b@                          ",
"    c@d@e@f@g@h@i@j@k@l@m@n@o@p@q@r@s@t@u@v@w@x@y@z@A@B@C@D@E@F@G@              ",
"      H@I@J@K@L@M@N@O@P@Q@R@S@T@U@V@W@X@Y@Z@`@ #.#+#@#            ##$#          ",
"        %#&#*#4+=#-#;#>#,#'#)#!#~#{#]#^#/#(#_#:#<#[#`@}#|#1#          2#3#4#    ",
"          5#6#7#*.8#9#0#a#b#c#d#e#f#g#h#i#j#  k#l#m#n#8#o#p#q#                  ",
"            6#r#s#t#u#v#w#x#y#z#A#6#B#C#D#E#F#G#H#I#J#K#L#  M#                  ",
"      N#      O#P#Q#R#S#T#U#V#W#X#Y#Z#`# $.$+$@$#${#$$%$&$*$  =$                ",
"      -$;$>$,$'$)$!$~$    {$]$^$/$($  _$:$  <$[$}$|$&.      1$2$3$              ",
"      4$5$6$7$8$9$0$a$    b$r#c$d$e$  f$g$  h$i$j$k$l$      m$n$D+              ",
"    o$p$q$r$s$t$u$v$        w$x$y$y$z$A$B$C$D$E$F$G$H$        I$J$K$            ",
"    L$M$N$O$P$Q$          R$S$T$U$V$W$X$Y$  Z$`$     %          .%+%@%          ",
"    #%$%%%&%*%=%      -%;%  >%,%'%)%!%    ~%{%  ]%^%  /%(%_%    :%  <%          ",
"      [%}%|%1%2%3%            4%5%6%            7%  8%      9%  0%              ",
"      a%b%c%d%e%P$f%  g%h%i%j%  k%l%  m%n%                    o%p%              ",
"          q%r%s%t%    u%v%    w%x%y%          z%  A%            B%              ",
"          C%D%E%F%        G%H%  I%J%            K%              L%              ",
"          M%N%O%P%        Q%R%  S%T%            U%              L%              ",
"                    V%    W%          X%Y%    Z%                L%              ",
"                `%                     &.&    +&  @&            #&              ",
"                                      $&%&&&*&    =&            -&              ",
"                                                                                ",
"                                                                                "};
