/* XPM */
static char * deadg_xpm[] = {
"40 40 16 1",
" 	c #FFC0CB",
".	c #9E111D",
"+	c #63B65F",
"@	c #1A2E14",
"#	c #7E201A",
"$	c #95161F",
"%	c #ED1C24",
"&	c #46794E",
"*	c #234130",
"=	c #700000",
"-	c #AA271D",
";	c #A00000",
">	c #880000",
",	c #E43CB6",
"'	c #E0D76B",
")	c #929BB6",
"                                        ",
"                                        ",
"                                        ",
"                                        ",
"                                        ",
"          .+....                        ",
"          .++...@@@  #.$..$             ",
"    . .    %%.&+***++@ .. ...   @+@     ",
"    =..   -%*.+***+@@@  .....   @&&@@   ",
"    ;>=  #&%*.+**+@      ...   @++++@   ",
"  ; >>  ...*..**+@   @@@ .     @++@@    ",
"   ==  .....%..+@  @+++*#.     @&@@     ",
"       ...*&&&%+@@@+&**&&.     @.@      ",
" .    @+%*&**+%+@&+@@@@&&. .    #@      ",
".     @+@@ .,+@@%+&+**##.$.$...##&@     ",
"      %@@%@,@+@%%%@&*@ #.$$$.####.@     ",
"     .%%%%@,%&@++%@%@ .,+#&&**&&&.@     ",
" .@@@.%%%.@,@@@++@'*@..*+#@*&&**@@..    ",
" @++@ %%@@%@%&+**@**@.**+#% *@.@.@@..   ",
" @+&*@%@++@%@+&*@++&  %+&. %%&&+++@%..  ",
" @&++&%@*+@@+**@@++&**&+@%%+++&++++...  ",
" .%%@@.@+@@*+.++@*++&%  .%++++&++  ..%. ",
"  %%%...@@@@+%++&@@++%@ ..+++*&&&....%..",
"  .%%%%..@@&@++@@@@&&+@%..@@*&&@@....%..",
"  .%%%..@&@&'++*'&@&&+.%.%%.@@@......%..",
" .%%%...@&&@+%+&.&@&&@%% @%%%%.).@...%. ",
"..%%.@@.@&*@++&&*&@&&@%%% @%%%%.)&@%%.  ",
".%%.@@*&&%@..+@,+@.+&@%%.&++@%%%@*&@.   ",
" .%%@&*&&@%..&@,+@.+&@.%%@@&+ %%.@&@ @@ ",
"  %%.&&*@@%%.@.@,@.@+@@..%@++@.%%@&@@&@ ",
"  .%%.@@...%%...@,@.@+@@%%&*@.%%%@*&&*@ ",
"   ..%.......%%%.@@.%@@+@&@@%%%%.@&*@@  ",
"      %%%%.....%%%%.@+**+&%%%%.. @@@    ",
"        ..%%%%%%.  .@&+&*@...           ",
"                      @+@               ",
"                       @@               ",
"                                        ",
"                                        ",
"                                        ",
"                                        "};
