/* XPM */
static char * enemy75_xpm[] = {
"75 75 13 1",
" 	c #FFC0CB",
".	c #252525",
"+	c #9D9F23",
"@	c #777676",
"#	c #9D9999",
"$	c #999090",
"%	c #000000",
"&	c #607F1B",
"*	c #5F4327",
"=	c #9D6144",
"-	c #FFFFFF",
";	c #7F7F7F",
">	c #606060",
"                                                                           ",
"                                                                           ",
"                                                                           ",
"                                                                           ",
"                                                                           ",
"                                                                           ",
"                                                  .+                       ",
"                                        .@@@@@@@. @+                       ",
"                                   @@+@.@@#######.@+                       ",
"                               @@@@@@+..@##########@@@@..                  ",
"                             @@.@@@.@+.@#####$$$###@@@@@@.                 ",
"                            ........@@+.####@@@####@##@@@@.                ",
"                          ...........@+..#@@####@##@###@@@@                ",
"                       .............%@+#########@@##@#####@.               ",
"                      .........@@@...@@#####&&&&+#########@.               ",
"                     ....###..@@@@.....####&+++&&&&#@#####@.               ",
"                     ...#####..@@@@.....##&&&&&&&..&@@@@....               ",
"                    ....#######..........&.....+&.&&.....@$.               ",
"                   ....###@#######.........%%..+++&@@...@$$$@              ",
"                 .......###@@#@@###........&&..++&@$@....@$$$.             ",
"                ...@@.@.#####@#####.....%......&&@$@@  ..@@$$@             ",
"               ...@@......######.........%.....&.@$$.  ...@@$@             ",
"               ..@..@@@@@@.%%....@@@@@@@@.%...&.@$$@.  ....@$@.            ",
"              .....@@$$$@@ ..%%..@@@@@@@@@@%%..@$$$.    ..%.@..            ",
"             .....@$$$$$.. .......@@$@$$$$@@..@@$$.     .....+&.           ",
"             ....@@@$$@@.   .......@@$@$$$$@@.@@@.      ..&&+++.           ",
"             ....@@@@@.    ..........@@@$$$@..          ..&&+++.           ",
"             ....&..       ........@@........           ...&&++.           ",
"            ....&&&&       ....@@......@@@.@*@           ..&&++.           ",
"            ....&+++      ......@..........*@@.           ..&&+&           ",
"            .....&++      .....*.@...@@@..*@@@@.           ..&+&           ",
"            ....&++&      .%....**......**.@#@#@@          &+++&           ",
"             ....++&      .%......********.@##@##@        .++++&           ",
"           **...&++       .%....##..*****..@@@#@##@       .&++++           ",
"           **...&+&       ......##...****...@#@#@##       &+&&++           ",
"           .*...&+&        .....##...****.@..####@#@      &&..&+           ",
"            ....++         .....##@...***..@@@###@@@        ..&+           ",
"             ...++&        ...@@##@...**....@@@###@#@      ...&+           ",
"             ...++++       ...$@##@...** ....@@###@##      .&.++           ",
"             ...&+++&      ...@@##@@..**  .....@#@@##      .&.+            ",
"             ...&+**+      ..$@@#@@@ .      ....@@@##                      ",
"             ...&+*=*      ..$@##@##       ......@@@@                      ",
"              ...&.*=*     -.$@##@##      .....@@@$@.                      ",
"              ...&+.*=*    ;.@@##@##      ...&&+&@@.                       ",
"                ... .*=; . ;..@-%@##       ..&&&&&@                        ",
"                     .* ;.>-;.-%@###       ...&&&&                         ",
"                       ..;;;;-..@@#@       ...&&&                          ",
"                        ...;;;;&++@       .....&+&                         ",
"                     ..>;..-;;-;;-        ...&&&++&                        ",
"                       ......;..&&        .....&+++                        ",
"                       .%;...;>.&          .....&++&&                      ",
"                        ..%;.%;&             ....&&&&+.                    ",
"                       >..%.&.&                ..&&&&++                    ",
"                       ..&&.+&.                ....&&+                     ",
"                       ...&>&.                   .&++                      ",
"                      ...&+&.                                              ",
"                      ...&&.                                               ",
"                     ....&&                                                ",
"                    ..&.&++                                                ",
"                    ....&++&                                               ",
"                    ....&&+&                                               ",
"                     ...&&&&.                                              ",
"                      ...&&&&                                              ",
"                      ..&&&+&+&                                            ",
"                       ..++&&+.                                            ",
"                        .&&&&                                              ",
"                                                                           ",
"                                                                           ",
"                                                                           ",
"                                                                           ",
"                                                                           ",
"                                                                           ",
"                                                                           ",
"                                                                           ",
"                                                                           "};
