/* XPM */
static char * fear_xpm[] = {
"40 40 160 2",
"  	c #FFC0CB",
". 	c #000000",
"+ 	c #FFFFFF",
"@ 	c #F7FFFB",
"# 	c #000403",
"$ 	c #010100",
"% 	c #FCFFFD",
"& 	c #FEFFFF",
"* 	c #060002",
"= 	c #000004",
"- 	c #000607",
"; 	c #4CC6AF",
"> 	c #49C7B2",
", 	c #49C7B1",
"' 	c #4EC5AF",
") 	c #000308",
"! 	c #000002",
"~ 	c #070002",
"{ 	c #FFFEFF",
"] 	c #080002",
"^ 	c #46C6AD",
"/ 	c #BFFDF0",
"( 	c #5ADFC4",
"_ 	c #000100",
": 	c #FCFFFF",
"< 	c #FCFCFC",
"[ 	c #020003",
"} 	c #44CBAD",
"| 	c #B5F9EE",
"1 	c #58E0CA",
"2 	c #58E0C8",
"3 	c #58E1C7",
"4 	c #58E0CC",
"5 	c #BBF7EF",
"6 	c #3ED5B4",
"7 	c #000103",
"8 	c #050003",
"9 	c #3FCBB0",
"0 	c #60D9C6",
"a 	c #68DDCA",
"b 	c #5EE2CA",
"c 	c #59E4C7",
"d 	c #5AE2CA",
"e 	c #5AE3C9",
"f 	c #5DE1C9",
"g 	c #64DFCB",
"h 	c #47C8B2",
"i 	c #000202",
"j 	c #FDF7F9",
"k 	c #000A04",
"l 	c #43CEB7",
"m 	c #5BE3CB",
"n 	c #4DE2C2",
"o 	c #57E0C4",
"p 	c #4BC8B6",
"q 	c #000706",
"r 	c #F5FEF9",
"s 	c #000200",
"t 	c #44CAB1",
"u 	c #41CDB3",
"v 	c #5CE2CA",
"w 	c #57E6C8",
"x 	c #66DEC5",
"y 	c #5EE2CB",
"z 	c #40CCB1",
"A 	c #4EC5B2",
"B 	c #42CBB1",
"C 	c #43CBB3",
"D 	c #5CE2C9",
"E 	c #040000",
"F 	c #5BECCD",
"G 	c #55EBCE",
"H 	c #59E8CA",
"I 	c #42CAB2",
"J 	c #010000",
"K 	c #5CE1CC",
"L 	c #6ADFC5",
"M 	c #000302",
"N 	c #5BE4CA",
"O 	c #56E4CA",
"P 	c #5DE1CA",
"Q 	c #60DFCA",
"R 	c #010002",
"S 	c #000605",
"T 	c #6BDBC3",
"U 	c #5EE2CD",
"V 	c #49C8AA",
"W 	c #42CCAA",
"X 	c #65E3B3",
"Y 	c #5AE6C3",
"Z 	c #66E6AD",
"` 	c #61E0C2",
" .	c #51E9C3",
"..	c #64DDB0",
"+.	c #58E7CB",
"@.	c #65E1AD",
"#.	c #3ECBBB",
"$.	c #52C4AA",
"%.	c #42C9A8",
"&.	c #FFF309",
"*.	c #EAF431",
"=.	c #FFF100",
"-.	c #E7F820",
";.	c #FDF306",
">.	c #47C999",
",.	c #010103",
"'.	c #070005",
").	c #FFD302",
"!.	c #F9D900",
"~.	c #FFF000",
"{.	c #FEF200",
"].	c #FFEE0B",
"^.	c #FDF107",
"/.	c #FFF102",
"(.	c #FFF200",
"_.	c #FDD302",
":.	c #F3D511",
"<.	c #000300",
"[.	c #FFFCFF",
"}.	c #0E0000",
"|.	c #FFC900",
"1.	c #FFF002",
"2.	c #F6EE29",
"3.	c #FDEF00",
"4.	c #FBEF03",
"5.	c #F9F301",
"6.	c #FFF51A",
"7.	c #FFF103",
"8.	c #0B0000",
"9.	c #020001",
"0.	c #FAF402",
"a.	c #020500",
"b.	c #FEF10D",
"c.	c #060900",
"d.	c #FAF40A",
"e.	c #020400",
"f.	c #F7F600",
"g.	c #000007",
"h.	c #FFF106",
"i.	c #FDF00E",
"j.	c #000500",
"k.	c #FDEF10",
"l.	c #FCED22",
"m.	c #00000B",
"n.	c #FEF300",
"o.	c #000400",
"p.	c #FFFFFD",
"q.	c #070601",
"r.	c #FEF105",
"s.	c #FEF104",
"t.	c #030000",
"u.	c #FFDE0D",
"v.	c #000005",
"w.	c #F8D40C",
"x.	c #FCD20A",
"y.	c #FFCF13",
"z.	c #010004",
"A.	c #FEFEFE",
"B.	c #FFFDFF",
"C.	c #000104",
"                                                                                ",
"                                                                                ",
"            . . . . . . . . . . . . . . . . . . . . . . . . . . . . . .         ",
"            . . . . . . . . . . . . . . . . . . . . . . . . . . . . . .         ",
"        . . . . + + + + + + + + + @ # $ $ $ $ # % + + + + + + + + + . . . .     ",
"        . . . . + + + + + + & * = - ; > > , , ' ) ! ~ { + + + + + + . . . .     ",
"    . . . . + + + + + + + + ] ^ ^ ^ / / / / / / ^ ^ ^ ] + + + + + + + + . . . . ",
"    . . . . + + + + + + + ] ! / / / ( ( ( ( ( ( / / / _ ] : + + + + + + . . . . ",
"    . . + + + + + + + < [ ^ } | ( ( 1 2 2 3 3 4 ( ( 5 6 ^ 7 + + + + + + + + . . ",
"    . . + + + + + + + + 8 ^ 9 0 a b c d d d d e f g ( h ^ i + + + + + + + + . . ",
"    . . + + + + + + + j k ^ l m d d d ] n o ] d d d m p ^ q r + + + + + + + . . ",
"    . . + + + + + + + s t u v ] ] ] ] l w x l ] ] ] ] y z A _ + + + + + + + . . ",
"    . . + + + + + + + . B C D l E _ _ F G H l _ _ . l m I ; J + + + + + + + . . ",
"    . . + + + + + + + . B C K L M . . N O P Q R R S T U I ; J + + + + + + + . . ",
"    . . + + + + + + + . V W X Y l l l Z `  ...l l l +.@.#.$.J + + + + + + + . . ",
"    . . + + + + + + + M %.&.X &.Z *.X =.Z &.2 &.O -.2 ;.>.^ ,.+ + + + + + + . . ",
"    . . + + + + + + + '.).!.~.=.{.].=.~.=.=.=.=.^././.(._.:.<.+ + + + + + + . . ",
"    . . + + + + + + + [.}.|.{.=.1.2.3.4.3.3.5.3.6.~.7.{.|.8.: + + + + + + + . . ",
"    . . + + + + + + + + 9.|.{.{.0.) a.b.8.c.d.e.) f.=.{.|.g.+ + + + + + + + . . ",
"    . . + + + + + + + + e.|.{.{.h.i.) j.k.l.m.) n.(.&.{.|.o.+ + + + + + + + . . ",
"    . . . . + + + + + + p.] q.{.{.{.1.=.~.r.s.(.{.{.{.t.] + + + + + + + . . . . ",
"    . . . . + + + + + + + + ] u.u.u.{.{.{.{.{.{.u.u.u.] + + + + + + + + . . . . ",
"        . . . . + + + + + + { _ v.}.w.x.x.x.x.y.8.z.M + + + + + + + . . . .     ",
"        . . . . + + + + + + + + A.B._ ! ! ! ! . B.A.+ + + + + + + + . . . .     ",
"            . . . . . . . . . . + + + + + + + + . . . . . . . . . . . .         ",
"            . . . . . . . . . . + + + + + + + + . . . . . . . . . . . .         ",
"                            . . + + + + + + . . C.C.                            ",
"                            . . + + + + + + . . C.C.                            ",
"                        . . + + + + + + . .                                     ",
"                        . . + + + + + + . .                                     ",
"                    . . + + + + + + . .                                         ",
"                    . . + + + + + + . .                                         ",
"                    . . + + + + . .                                             ",
"                    . . + + + + . .                                             ",
"                    . . . . . .                                                 ",
"                  . . . . . . .                                                 ",
"                  . .                                                           ",
"              . .                                                               ",
"              . .                                                               ",
"                                                                                "};
