/* XPM */
static char * floor2_1_xpm[] = {
"40 40 5 1",
" 	c #564132",
".	c #4A3C32",
"+	c #6C4834",
"@	c #403630",
"#	c #8A5034",
"     .++     .++  .@+        .++  .@+   ",
"     +.+     +.+ .++.++      +.+ .++.++ ",
"+  ++. .+  ++. .. #+ .+ +  ++. .. #+ .+ ",
".   .++ .   .++  .   .+ .   . +  . + .++",
"     .++     .++   +  @       ++   ++ @+",
"  +++.    +++.             . .@     @@  ",
"   +       +       +     ...    +       ",
"     .++     .++  .@+        .++  .@+   ",
"     +.+     +.+ .++.++      +.+ .++.++ ",
"+  ++. .+  ++. .. #+ .+ +  ++. .. #+ .+ ",
".   .++ .   .++  .   .+ .   . +  . + .++",
"     .++     .++   +  @       ++   ++ @+",
"  +++.    +++.             . .@     @@  ",
"   +       +       +     ...    +       ",
"       .       .+  +.  +.          .  + ",
" +  .    +  .     .+.  ++.  +.  ..@+@ .+",
"+ + .  ++ + .  +   .     +.  +.    ++. .",
".++@ . +.++@ . +#     . .    +.    +@+  ",
" @@    + @@    ++#..      +.        .   ",
"       +       + ++.    + +.    ..  @ @ ",
" +@ . +  +@ . +   ..  ++. .  +   . +   @",
"++.     ++.     ..   ...    +..  +   .@+",
" @  #    @  #              +.   +.    . ",
"    + ..    + ..++    +     .  +..  +   ",
"    .+.     .+. .+++ +  +.          . + ",
"+    .  +    .  @...    +.   +..     .+ ",
".     ++.     ++       +.    +.    + .++",
"  ++   +  ++   + .@.  +.  .  .   + ++ @+",
"  +++. +  +++. + +#@  .   +@..  +   @@  ",
"    ++ .    ++ .  ++.  .   ++   +       ",
"     +       +      .  +.       +   . + ",
" +    @  +    @   +@ ++.     ++#   +  .+",
"+ + .++@+ + .++@  +. ..         + +@+  .",
".++@ . +.++@ . +@       . +         @+  ",
" @@    + @@    ++        @     +    .   ",
"     @       @  +@ +@        @   @ +@ @ ",
" +@ .++  +@ .++    +@  @  @ .++    +@  @",
"++..+.+ ++..+.+      .@+++..+.+      .@+",
" @ +#+.. @ +#+..@ . . .  @ +#+..@ . . . ",
"     .++     .++  .@+        .++  .@+   "};
