/* XPM */
static char * floor3_xpm[] = {
"40 40 10 1",
" 	c #6C4834",
".	c #564132",
"+	c #4A3C32",
"@	c #403630",
"#	c #8A5034",
"$	c #4C3324",
"%	c #815C41",
"&	c #231919",
"*	c #251923",
"=	c #382623",
" ... ........+  ..+@ ........+  ..+@ ...",
"+  .+  ...... + .+  +  ...... + .+  +  .",
".+ ..+ . ..  +.++.# .+ . ..  +.++.# .+ .",
".+  .+  +...+  ..+......@@.......+. .+  ",
" . ........+  ..+@ ........+  ..+@ ...@ ",
"$@+  ...... + .+  +  ...... + .+  +  ...",
"%$.+ . ..  +.++.# .+ . ..  +.++.# .+ ...",
" ..+  +...+  ..+......@@.......+. .+  ..",
"+  .@ .....+  ...&@@......@@... .  .@  .",
".+$@.... ........@..@@@@@@..@. ...@@.. .",
".+%$......@@..&@&& .@...@.@@. ...+....  ",
" .*$ .......@@...@ @...@&...@.....+. .@ ",
"$@..+ . ..@@ . ..&@...@&@...@.@.. ..+ ..",
"%$ ..+ . @.@  . @@& ==.@.@@@=@.@.@ ..+..",
"*$@ ..+  @ .@  .==@@@=@  ..@..@.@.@ .. .",
"..+....@@@#..@ @=@.. @=@..@=...@=.+...+ ",
" .@.@....@  .=@.=&@@  #=@.@@@ @.@...@..+",
"@ @..@. . @# .=@.. .@.#@.=@  @..@....@..",
"+..+@   @ @ . =@...&@..=@.@  @..@..+@ ..",
"@.+.+..@=  @ #@  .#@&@@&=@@  &@@==..+.@.",
"@. ....@===&@@=@ #@=@.  ..@==@&..@.....@",
".++  ..@.@@@&@..@ @&. ## .=@@.@..@.  .@ ",
"+..+ . @.@ @@&.@=@&=... ..=.  @.@..+ .+.",
" ..+  +.@= # @@.@&=@.=@@@@&=@ @&...+  ..",
"+  .@ ..@=# @...=@@=@@ ...=@.=&@....@  .",
".+@@....@= @.=@@= ....@#..@.=@@@..@@.. .",
".+..=...@@.@@@ .@ .@@== #@=  @..@.....  ",
" .@= ....@@=#@@@@ #.=@@. =. .@.@..+. .@ ",
"@@=.+ . .@=@ ...@=#@#@.@@. .@.@.....+ ..",
"..=..+ . ...@@...=@. @...@@@@@.... ..+..",
"@=. ..+  @....@@.@= .@@@@... .... @ .. .",
"=.+....@@.....+ @@@@@.....  ......+...+ ",
"=.@.@......@..+ ......@..  ... @. @.@..+",
". @..@. @.+  ..+   ..@. @.+  .... @..@..",
"+..+@   ++ + ......+@   ++ + ......+@ ..",
"@.+.+..@. # ++@.+.+.+..@. # ++@.+.+.+.@.",
"@. ........+  ..+@ ........+  ..+@ ....@",
".+@   ++ + ......+@   ++ + ......+@ .+@ ",
"+.+..@. # ++@.+.+.+..@. # ++@.+.+.+.+.+.",
" ........+  ..+@ ........+  ..+@ ... ..."};
