/* XPM */
static char * GCBack1_xpm[] = {
"40 40 11 1",
" 	c None",
".	c #000000",
"+	c #344E2F",
"@	c #496B41",
"#	c #5F8357",
"$	c #1F321B",
"%	c #466040",
"&	c #33462F",
"*	c #413621",
"=	c #4C3D20",
"-	c #6D5A35",
"                                        ",
"                                        ",
"                                        ",
"                                        ",
"                                        ",
"                                        ",
"                                        ",
"                                        ",
"                 ..  ..                 ",
"               ..++..++..               ",
"              .@@######@@.              ",
"             .+@$$####$$@+.             ",
"         ..  .++@@+##+@@++.  ..         ",
"         .%...+##@@##@@##+...%.         ",
"         .#%%%############%%%@.         ",
"          .#%##############%@.          ",
"           ..@############@..           ",
"            .+@##########@+.            ",
"             .+@########@+.             ",
"             .+++@####@+++.             ",
"             .++++++++++++.             ",
"              .++++++++++.              ",
"               .++++++++.               ",
"               ..++++++..               ",
"               .@......@.               ",
"              .@@@@@@@@@.               ",
"              .#@@@@@@@@@.              ",
"             .##.@####@.#.              ",
"             .##.@####@.##.             ",
"             .#@.######@.@.             ",
"             .@@.######@.@.             ",
"              ..@#######..              ",
"               .&&####&&.               ",
"               .**&&&&**.               ",
"               .==-..-==.               ",
"               ..--..--.                ",
"                ... .@@.                ",
"                    .##.                ",
"                    .#.                 ",
"                     ..                 "};
