/* XPM */
static char * GCFrente3_xpm[] = {
"40 40 17 1",
" 	c #FFC0CB",
".	c #000000",
"+	c #344E2F",
"@	c #496B41",
"#	c #5F8357",
"$	c #1F321B",
"%	c #466040",
"&	c #1D1D1D",
"*	c #3C4A39",
"=	c #EBCF38",
"-	c #998935",
";	c #33462F",
">	c #E2E2E2",
",	c #4A6943",
"'	c #413621",
")	c #6D5A35",
"!	c #4C3D20",
"                                        ",
"                                        ",
"                                        ",
"                                        ",
"                                        ",
"                                        ",
"                                        ",
"                                        ",
"                 ..  ..                 ",
"               ..++..++..               ",
"              .@@######@@.              ",
"             .+@$$####$$@+.             ",
"         ..  .++@@+##+@@++.  ..         ",
"         .%...+##@@##@@##+...%.         ",
"         .#%%%.##########.%%%#.         ",
"          .&%#@##########@#%&.          ",
"           ..##@@@####@@@##..           ",
"            .*#***@##@***#*.            ",
"             .*#==*##*==#*.             ",
"             .+#-&;##;&-#+.             ",
"             .+@#-.;;.-#@+.             ",
"              .@#..;;..#@.              ",
"              .+.>.##.>.+.              ",
"               ..,,..,,..               ",
"               .@......@.               ",
"               .##@@@@###.              ",
"              .##########.              ",
"              .#.@@##@@.##.             ",
"             .##.;;##;;.##.             ",
"             .@.@######.@#.             ",
"             .@.@##@@##.@@.             ",
"              ..###@@##@..              ",
"               .;;####;;.               ",
"               .'';;;;''.               ",
"               .)!!..!!).               ",
"               .))!..!)).               ",
"                .@@. ...                ",
"                .##.                    ",
"                 .#.                    ",
"                 ..                     "};
