/* XPM */
static char * GCLadoEsq2_xpm[] = {
"40 40 16 1",
" 	c None",
".	c #000000",
"+	c #344E2F",
"@	c #496B41",
"#	c #1F321B",
"$	c #5F8357",
"%	c #466040",
"&	c #33462F",
"*	c #EBCF38",
"=	c #1D1D1D",
"-	c #998935",
";	c #3C4A39",
">	c #E2E2E2",
",	c #413621",
"'	c #4C3D20",
")	c #6D5A35",
"                                        ",
"                                        ",
"                                        ",
"                                        ",
"                                        ",
"                                        ",
"                                        ",
"                                        ",
"                ...                     ",
"              ..+++.....                ",
"             .@@##@+$@@@.               ",
"            .@@+@@+$$$$$@.              ",
"            .$@@@$$$$$$$$.              ",
"           .$$$$$$$$$$@@$$.             ",
"           .$$$$$$$$@@@..$.             ",
"           .$$$@@@$@...%.@.             ",
"           .@$@&&&$.%%%$.@.             ",
"            .$&**$$@$$%.+@.             ",
"            .$&=-$$$$..++@.             ",
"         ...&&$-$@$$;.+++.              ",
"         .$$&..$$@@;+++++.              ",
"          ...>>.@@@+++++.               ",
"            .$$.@@@+++..                ",
"             ...++$++.                  ",
"                .....                   ",
"                 .@@.                   ",
"                .$&$$.                  ",
"                .@.@$.                  ",
"               .$&.@$.                  ",
"               .$.@$.@.                 ",
"               .@.@@.@.                 ",
"               .@$..@$.                 ",
"                .$$&&&.                 ",
"                .&&,,.                  ",
"                .'').                   ",
"                .')).                   ",
"                 .@.                    ",
"                 .$.                    ",
"                 ..                     ",
"                                        "};
