/* XPM */
static char * GEnemyFrente2_xpm[] = {
"40 40 20 1",
" 	c #FFC0CB",
".	c #000000",
"+	c #BFBFBF",
"@	c #707070",
"#	c #A5A5A5",
"$	c #466040",
"%	c #5F8357",
"&	c #1D1D1D",
"*	c #33462F",
"=	c #283A4C",
"-	c #4A6943",
";	c #415B74",
">	c #BBBBBB",
",	c #CDCDCD",
"'	c #A4A4A4",
")	c #8D8043",
"!	c #496B41",
"~	c #413621",
"{	c #6D5A35",
"]	c #4C3D20",
"                                        ",
"                                        ",
"                                        ",
"                                        ",
"                                        ",
"                                        ",
"                                        ",
"                                        ",
"               ........                 ",
"              .++@@@@++.                ",
"             .@+@+@@#@+@.               ",
"            .+#@++@@+#@++.              ",
"        ..  .+@#@+@@+@#@+.  ..          ",
"        .$...@++#@@@@++#@...$.          ",
"        .%$$.#@+@#@@#@+@#.$$%.          ",
"         .&$.+#@++@@+#@++.$&.           ",
"          ...+@#@@@@@@#@+...            ",
"           ..@++#@%%@++#@..             ",
"            .#@+@@%%@@+@#.              ",
"            .+#@+@%%@#@++.              ",
"            .+@#@@**@@#@+.              ",
"            .@++#@**@++#@.              ",
"             .@+@.%%.@+@.               ",
"            .=...-..-...=.              ",
"           .;;==......==;;.             ",
"          .;;;;>======>;;;;.            ",
"           .==;,;>;;>;,;==.             ",
"            ..==;,;;,;==..              ",
"           .+''===%%===''+.             ",
"           .)).!%%%%%%!.)).             ",
"           .++.!%%!!%%!.++.             ",
"            ...%%%!!%%%...              ",
"              .**%%%%**.                ",
"              .~~****~~.                ",
"              .{]]..]]{.                ",
"              .{{]..]{{.                ",
"               .!!..!!.                 ",
"                .%..%.                  ",
"                ..  ..                  ",
"                                        "};
