/* XPM */
static char * GEnemyBack1_xpm[] = {
"40 40 14 1",
" 	c None",
".	c #000000",
"+	c #BFBFBF",
"@	c #A5A5A5",
"#	c #707070",
"$	c #466040",
"%	c #5F8357",
"&	c #496B41",
"*	c #415B74",
"=	c #283A4C",
"-	c #33462F",
";	c #413621",
">	c #4C3D20",
",	c #6D5A35",
"                                        ",
"                                        ",
"                                        ",
"                                        ",
"                                        ",
"                                        ",
"                                        ",
"                                        ",
"                ........                ",
"               .+@####++.               ",
"              .#+#@##@#+#.              ",
"             .+@#++##+@#++.             ",
"         ..  .+#@#+##+#@#+.  ..         ",
"         .$...#++@####++@#...$.         ",
"         .%$$.@#+#@##@#+#@.$$&.         ",
"          .%$.+@#++##+@#++.$&.          ",
"           ...+#@#+##+#@#+...           ",
"            ..#++@####++@#..            ",
"             .@#+#@##@#+#@.             ",
"             .+@#++##+@#++.             ",
"             .+#@#+##+#@#+.             ",
"             .#++@####++@#.             ",
"              .#+#@##@#+#.              ",
"               .#++##+@#.               ",
"               ..........               ",
"              .*=======*.               ",
"              .**********.              ",
"             .==.======.=.              ",
"             .%%.&%%%%&.%%.             ",
"             .%&.%%%%%%&.&.             ",
"             .&&.%%%%%%&.&.             ",
"              ..&%%%%%%%..              ",
"               .--%%%%--.               ",
"               .;;----;;.               ",
"               .>>,..,>>.               ",
"               ..,,..,,.                ",
"                ... .&&.                ",
"                    .%%.                ",
"                    .%.                 ",
"                     ..                 "};
