/* XPM */
static char * gsBack2_xpm[] = {
"40 40 18 1",
" 	c #FFC0CB",
".	c #000000",
"+	c #999BA1",
"@	c #AAADB4",
"#	c #A8ABB2",
"$	c #9B9DA3",
"%	c #AE334A",
"&	c #D3CDCF",
"*	c #551B1B",
"=	c #A6A5A5",
"-	c #F3F3F3",
";	c #C9C7C7",
">	c #A4A3A3",
",	c #3C3333",
"'	c #7A5F53",
")	c #222222",
"!	c #534B4E",
"~	c #634E44",
"                                        ",
"                                        ",
"                                        ",
"                                        ",
"                                        ",
"                                        ",
"                                        ",
"                   ....                 ",
"                ...++++...              ",
"               .@++++++++@.             ",
"              .@@@@....@@@@.            ",
"              .#...@@@#...@.            ",
"             ...####@@##@@...           ",
"             .@@@@@@$$@@@@@@.           ",
"             .@#@@@$$$$@@@@@.           ",
"             .++++++%%++++++.           ",
"             .+++++%%%%+++++.           ",
"            .&....++*%%+....&.          ",
"            .=.@@$...*%%$@@.=.          ",
"             ..@@+++++*%%@@..           ",
"              .@++++++++%+@.            ",
"             ..@++++++++++@..           ",
"            .--.+-++-;++-+.--.          ",
"            .;;--;+-;;-+;--;;.          ",
"             .-;-;->;->-;-;-.           ",
"              .++->->>->-++.            ",
"              .,,.',,,,'.,,.            ",
"             .,)).######.)),.           ",
"             .)#..++###+..#).           ",
"             .#+.).++++.).+#.           ",
"              ...!.~~~~.!...            ",
"                .''~~~~''.              ",
"                .!!''''!!.              ",
"                .#))..))#.              ",
"                 .#!..!#.               ",
"                 .#!..!#.               ",
"                  .)..).                ",
"                  ..  ..                ",
"                                        ",
"                                        "};
