/* XPM */
static char * gsFrente2_xpm[] = {
"40 40 20 1",
" 	c None",
".	c #AE334A",
"+	c #AD3147",
"@	c #551B1B",
"#	c #000000",
"$	c #AAADB4",
"%	c #9B9DA3",
"&	c #D6CFD1",
"*	c #A8A7A7",
"=	c #3E353A",
"-	c #515050",
";	c #FB1414",
">	c #F6F6F6",
",	c #CBC9C9",
"'	c #A6A5A5",
")	c #544C4F",
"!	c #222222",
"~	c #3D3434",
"{	c #7B6054",
"]	c #3E383A",
"                                        ",
"                                        ",
"                                        ",
"                                        ",
"                      .                 ",
"                    ++@                 ",
"                 ...@@                  ",
"                .@@@                    ",
"               ######                   ",
"             ##$%%%%$##                 ",
"            #$$$$%%$$$$#                ",
"           #$$$$####$$$$#               ",
"           #$###%%%%###$#               ",
"          ###$$$%%%%$$$###              ",
"          #$$###%%%%###$$#              ",
"          #$#$$$####$$$#$#              ",
"          ##$$$$$$$$$$$$##              ",
"          #%%%%%%%%%%%%%%#              ",
"         #&#%###%%%%###%#&#             ",
"         #*###==####==###*#             ",
"          ##%#==-==-==#%##              ",
"           #%#==;==;==#%#               ",
"          ##%%#=;==;=#%%##              ",
"         #>>#%%######%%#>>#             ",
"         #,,>#%#%%%%#%#>,,#             ",
"          #>,>#>####>#>,>#              ",
"           #%%>')!!)'>%%#               ",
"           #~~#{!))!{#~~#               ",
"          #~!!#$$$$$$#!!~#              ",
"          #!$##%$$$%%##$!#              ",
"          #$%#!#%%%%#!#%$#              ",
"           ###)#%%%%#)###               ",
"             #{{####{{#                 ",
"             #))]]]]))#                 ",
"             #$!!##!!$#                 ",
"              #$)##)$#                  ",
"              #$)##)$#                  ",
"               #!##!#                   ",
"               ##  ##                   ",
"                                        "};
