/* XPM */
static char * gsLadoDir3_xpm[] = {
"40 40 21 1",
" 	c None",
".	c #AE334A",
"+	c #551B1B",
"@	c #000000",
"#	c #9B9DA3",
"$	c #AAADB4",
"%	c #D6CFD1",
"&	c #A8A7A7",
"*	c #3E353A",
"=	c #FB1414",
"-	c #F6F6F6",
";	c #A6A5A5",
">	c #808080",
",	c #CBC9C9",
"'	c #544C4F",
")	c #222222",
"!	c #3D3434",
"~	c #7B6054",
"{	c #634E44",
"]	c #3E383A",
"^	c #424242",
"                                        ",
"                                        ",
"                                        ",
"                                        ",
"                                        ",
"                                        ",
"                                        ",
"        ..                              ",
"       .++....                          ",
"      .++.+++..@@@@@@@@@                ",
"      +  +++++@#########@@              ",
"           ++@#######@@@##@             ",
"             @####@@@#####@             ",
"            @@@@@@#####@@##@            ",
"            @#########@$$@@@            ",
"            @#####@@@@$$$$$@            ",
"            @####@#########@            ",
"            @###@@###@@@###@            ",
"            @##@%&@@@@**@@@@            ",
"            @##@&%@##@**=*@             ",
"             @##@@@##@**=*@             ",
"             @########@*=*@             ",
"              @########@@@@             ",
"               @#######@##@             ",
"              @-@@###@@@@@              ",
"             @---;>@@@                  ",
"              @-,,-;')@                 ",
"               @-@$@#'@                 ",
"                @@$@##!@                ",
"                @##~@!)@                ",
"                @)#~@))$@               ",
"                @{'''@$#@               ",
"                @{~~~~@@                ",
"                @~'']]@                 ",
"                @))''^$@                ",
"               @')$@@'$@                ",
"               @'$@  @)$@@              ",
"              @)$@    @))@              ",
"              @)@      @@               ",
"               @@                       "};
