/* XPM */
static char * help_xpm[] = {
"40 40 9 1",
" 	c #FFC0CB",
".	c #000000",
"+	c #FFFFFF",
"@	c #F7FFFB",
"#	c #FEFFFF",
"$	c #FCFCFC",
"%	c #FEFEFE",
"&	c #FFFDFF",
"*	c #000104",
"                                        ",
"                                        ",
"      ..............................    ",
"      ..............................    ",
"    ....+++++++++@++++++++++++++++....  ",
"    ....++++++#+++++++++++++++++++....  ",
"  ....++++++++++++++++++++++++++++++....",
"  ....++.+++++.++.....+.++++++.....+....",
"  ..+++..++$+..+.....++..++++..++..+++..",
"  ..+++..++++..+..+++++..++++..+++..++..",
"  ..+++..++++..+..+++++..++++..+++..++..",
"  ..+++..++++..+..+++++..++++..++..+++..",
"  ..+++........+....+++..++++......+++..",
"  ..+++........+.....++..++++....+++++..",
"  ..+++..++++..+..+++++..++++..+++++++..",
"  ..+++..++++..+..+++++..++++..+++++++..",
"  ..+++..++++..+..+++++..++++..+++++++..",
"  ..+++..++++..+..+++++..++++..+++++++..",
"  ..+++..++++..+.....++....++..+++++++..",
"  ..+++.+++++.++......+.....+.++++++++..",
"  ....++++++++++++++++++++++++++++++....",
"  ....++++++++++++++++++++++++++++++....",
"    ....++++++++++++++++++++++++++....  ",
"    ....++++++++%&++++++&%++++++++....  ",
"      ..........++++++++............    ",
"      ..........++++++++............    ",
"              ..++++++..**              ",
"              ..++++++..**              ",
"            ..++++++..                  ",
"            ..++++++..                  ",
"          ..++++++..                    ",
"          ..++++++..                    ",
"          ..++++..                      ",
"          ..++++..                      ",
"          ......                        ",
"         .......                        ",
"         ..                             ",
"       ..                               ",
"       ..                               ",
"                                        "};
