/* XPM */
static char * pdead_xpm[] = {
"40 40 30 1",
" 	c #FFC0CB",
".	c #E92121",
"+	c #0B0602",
"@	c #1C1C1C",
"#	c #FF2700",
"$	c #292827",
"%	c #A8250E",
"&	c #4B3224",
"*	c #BB0303",
"=	c #3A3938",
"-	c #161513",
";	c #222120",
">	c #6C1F1E",
",	c #7C725F",
"'	c #675B51",
")	c #33160F",
"!	c #FFFFFF",
"~	c #C1BBA4",
"{	c #554D42",
"]	c #333131",
"^	c #AB2D2B",
"/	c #585858",
"(	c #FB8584",
"_	c #7B7B7B",
":	c #AAAAA9",
"<	c #A0927A",
"[	c #EB3B32",
"}	c #DBD9CE",
"|	c #874E35",
"1	c #CD7F4F",
"                                        ",
"                                        ",
"                                        ",
"                                        ",
"                           .            ",
"               +@+       ...            ",
"             #+$$@  %  ##..             ",
"             #+.&.. #%..###*            ",
"            % ==-$- #.#.#.#.**## ++     ",
"           %# -;-$+#%*#*#.#.##  ;$$+    ",
"      >   #**#-,=@+##.#*      ;@'$$+    ",
"    )>>>  .*# !~{-....-)-]'.-]'@==@+    ",
"   >  >^)  - *~~$/=;===&''.]+]'];=@@    ",
"   ^(((^> _;=*{,]:::#-=/];<];]=;;-++    ",
"    ))([>;*-_!~{}}}}#=|;~<'];+;;        ",
"   ))[[;>=*%::}$}}}##;1-=;;-;+]. . *    ",
"   ) [;:_==-}_}&&===<'1]1-++-;..*.*     ",
"       ;-=/-}#}|]/<|&=$&;~-@+ .%%.      ",
"    ) ^ -=.=_=$__;$+;;-']<;-@%.%..      ",
"       # :_.-{;}}_@--..-']<'@+%***      ",
"     ** #;_:/}-__$$ #.  -=''@+% *#*     ",
"      *   ;:=---]:]+#... -]]@;   *      ",
"     *   .#;:_--#$])#...*//];;@         ",
"     ## ..##  +&##]@)=;-. ;;;]<';       ",
"     #*#.#. -/)=)#/$));; *<;]'<<=       ",
"      #.*..--;;)&##@;)&=   ';='<'$      ",
"       .% ._=||;-=+-;;/   * ;:_=]]'     ",
"      .%. # _}====::/=     *  ;_;<'/+   ",
"      *..#.#  =/#//;  #  *  *   =;]/@   ",
"      *.....*######%#.%*%%%*     _+$+   ",
"      ** #.....#%...##**         /@@@   ",
"         .#....#......     . #    @@@   ",
"         ..%##% ..  ..#.....            ",
"          %%%           ..##            ",
"                         [>>^^          ",
"                                        ",
"                                        ",
"                                        ",
"                                        ",
"                                        "};
