/* XPM */
static char * player75_xpm[] = {
"75 75 39 1",
" 	c #FFC0CB",
".	c #AB2D2B",
"+	c #523124",
"@	c #EB3B32",
"#	c #762123",
"$	c #FB8584",
"%	c #3A3938",
"&	c #7A7A7A",
"*	c #D9D8CD",
"=	c #AAAAA9",
"-	c #F9FAFA",
";	c #585858",
">	c #1E1E1E",
",	c #421309",
"'	c #2B0C08",
")	c #151515",
"!	c #190F05",
"~	c #2F1F18",
"{	c #FFFFFF",
"]	c #C1BBA4",
"^	c #A19E81",
"/	c #554D42",
"(	c #E2DFD0",
"_	c #7C725F",
":	c #362B25",
"<	c #FF0000",
"[	c #343434",
"}	c #262423",
"|	c #675B51",
"1	c #D0BE66",
"2	c #99813F",
"3	c #F1E898",
"4	c #A08B76",
"5	c #080502",
"6	c #874E35",
"7	c #CD7F4F",
"8	c #848484",
"9	c #615430",
"0	c #F0D5BB",
"                                                   ..++                    ",
"                                                 @.+                       ",
"                                               .@++                        ",
"                                              @@+++#....                   ",
"                                             .@#+@$$$@@..                  ",
"                                          %% @.@$$$.#####.                 ",
"                                        %&*=%.$$$$$$$$   #..#              ",
"                                       %*--*=%..++++.@@@@                  ",
"                                  ;;;%%;;;;%&;>+,'''',+.@@@    .           ",
"                                 ;--&;;---*=;%>'''''   ,+......            ",
"                                ;--&&--;;%-*=&%>' ''''  ,,,+++             ",
"                                =-&*--=*--%;;%%%>>  '''                    ",
"                              %%-=--;;;;;--%**===&%    '                   ",
"                             &==;;;;****=>--%--&%%%>                       ",
"                             =-**----*=;;>=%)%%%%>)                        ",
"                            &--=--=;%%%%%>%%))))))                         ",
"                            =-=-=%%%%%%%%>)>>%%%>)                         ",
"                           ;--=%%%%%))))))>=!!!%%>                         ",
"                           ;-;%%%%%)));;)>-~{]^!%>                         ",
"                           ;)))%%));>);>&%-/(__!%>_^                       ",
"                              )))))>;)*>*%*/___!>__/                       ",
"                               >);>)*)*%*%=&:::%{^((/:                     ",
"                                >);)*<*%*=%=&_{^^_^/_/                     ",
"                                 )=)*%*;-=&>_{{%%%%>>:                     ",
"                                 )=%**;-==&{^{&=***=&>:                    ",
"                                :)&=*=>==&_{(&=**;%%>>>                    ",
"                                /:%>%;>;=_{{;=-*;**==&>                    ",
"                               _]:>;=*>>&^{(;--;--=>>>&                    ",
"                              >>^/>*-=&>/](_;**;-=>;[}>                    ",
"                             %;%%/>%%&>>/__%%=*%*>;>>>>:::::               ",
"                             %&&%>}>>>>%%%>%>&=%*>%;%%%%&]]^_/:            ",
"                            %>&&>)):|%--*=*>>&%&&%&112(]%%&(((^/:          ",
"                            %>;%)&=>;-*=&*=&)>>>>&1{332(((=;&((]^>>        ",
"                            %%>);&&-**=%*=&&)}}}>=2332{{{=;;;;;;;&%>       ",
"                            %;;);;&-*=;%&&&%)}}>>==;={{&;;(((;((&;;%>      ",
"                            >>%)%;>))>%>%%%)44:>>&=*&&&{{{{{(];((]&;%>     ",
"                            !:}>)%))*=)))))>4|%%};=*=&{{{{{{((];(]{1&>     ",
"                            5+:})));*==;*=;6+%%%} ;***&{{^^^((]&;]332%>    ",
"                         %> >}6+~~)%>>%%=;776+:~   ;***&&{33^(]];]&12;%    ",
"                        ;&~>[[}>>!));*>>>!!~+::!    ;***=3331^]]%;&>&;%    ",
"                        %~:+;[}>5  )%*==%44|!~~|4!   ;&**=122&&;;%>&&&%    ",
"                       ;&>}66}>5   :>==%44|}%!|}4:}  >[;&*****===;&&&%     ",
"                       %>};;6+~!  ~~:::|||+66}|}4:4} [;>>;&&===&&&&;%      ",
"                      ;&~6666+~   ~6%*--%776!|}4|:4|}[;58;>>%%%%%%%        ",
"                      ;%6+;[+~5  !!~%==*%+~~!|}4:4||} 58;5;[5>             ",
"                      >>:66}~!   ~+6>>>>>776!4]%:4||}: [5;[5>>             ",
"                      }[}::~!  >>[>%:||||%>++!::|}||}|: >>5>5              ",
"                     };;[>>>9~>[[>||:%||%|}[[[!::|}}||:                    ",
"                  222[;;[5!!~>[[[>||%}::%||}[[[!!:||||:                    ",
"                 13332[>5555>*=&[[>%%:!!!%|}}*&&>!:%||:                    ",
"                2223332[[5}>*=&&&>[>:}}!!!%}=*-&&>!::}                     ",
"                %;*223255}}>[[&&&>}>>!!!  !}==*&&>5!:}                     ",
"               **=;*=29+>}]4[[[&>}>>55    5}==[[[}5                        ",
"              **===;%99+>|00]4[>>>55      5>[[[4|:5                        ",
"            **====&>%99~ |0000}>>%|:       5>[4044%}                       ",
"          ***===&%%>%9+~ |0004|}4|>5       5>|00044|>                      ",
"         **===&%%%%>~+   %44|||}>>}>}       5|00044|}>                     ",
"       ***==&%%%%>>       :|||%}>}}|:}       |000|||}>                     ",
"     -***==%%%%>>          :||>%%>||%}       }|||||:>>>                    ",
"    ---*=&%%%>>             >>%%;;>|%}        }:|||}%%)                    ",
"   ----&%%%>>                >%;;;>%:          >}::%%%)                    ",
"  ---=%%%>>                   >;;>%%}          %=**&%%):                   ",
"  -*%%%>>                     >;;>5>>          %&=**%%):                   ",
" -=%>>>                       >;;>5}%%          >&=*%%):                   ",
"                             >;&&;%|||           >&=&%%)                   ",
"                           >%;>&&&%||%}          %=**&&)                   ",
"                           %&&;>&%:%5>5          %*%%)))5                  ",
"                         }[[>&&>>555>>5           >%*==)5                  ",
"                        };88;[[[>5>>>>5           >*&>>)55                 ",
"                        }[;;[[}>555555>           >}[[[}>5                 ",
"                        55555555>>>>>>            5[[;8;}5                 ",
"                         }}}}}>>>                 }[==8[}5                 ",
"                                                  5}[[[}55                 ",
"                                                  }5>>>5>>                 ",
"                                                   }[[[}>                  "};
