/* XPM */
static char * prissback_xpm[] = {
"40 40 12 1",
" 	c #FFC0CB",
".	c #000000",
"+	c #FFFFFF",
"@	c #FFBF2C",
"#	c #C1C1C1",
"$	c #54478C",
"%	c #E4BC7F",
"&	c #E4DF82",
"*	c #F4F3BD",
"=	c #F6F196",
"-	c #BCBCBC",
";	c #FCF8DF",
"                                        ",
"                                        ",
"                                        ",
"                                        ",
"                                        ",
"                 ....                   ",
"               ..++++..                 ",
"             ..++++++++..               ",
"            .++++++++++++.              ",
"            .++++++++++++.              ",
"           .++++++++++++++.             ",
"           .++++++++++++++.             ",
"          ..++++++++++++++..            ",
"         .@.++++++++++++++.@.           ",
"         ...#++++++++++++#...           ",
"        .$$.#++++++++++++#.$$.          ",
"        .$$$.###++++++###.$$$.          ",
"         .$$..##########..$$.           ",
"          ...%..........%...            ",
"          ..%&&&&&&*&**&&%..            ",
"           .%&&*&&=*&=&*&%.             ",
"           .&&*&=&**===&*&.             ",
"           .==*&===*===&*&.             ",
"           .%======*====&%.             ",
"           .%============%.             ",
"           .%=&====*===&=%.             ",
"           .&=&&===*==&&=&.             ",
"            .*&&===&==&&*.              ",
"           ..*&&&=&&==&&*..             ",
"           ..&&&&=&&&=&&&..             ",
"           ..&&&&&&&&=&&&..             ",
"            ..&&&&&&&&&&..              ",
"             ..&&&&&&&&..               ",
"             .-........-.               ",
"             .-++++++++-.               ",
"             .--++++++--.               ",
"             .-........-.               ",
"              . .;..;. .                ",
"                ..  ..                  ",
"                                        "};
