/* XPM */
static char * prissright_xpm[] = {
"40 40 24 1",
" 	c #FFC0CB",
".	c #000000",
"+	c #FFFFFF",
"@	c #C1C1C1",
"#	c #DCC34D",
"$	c #54478C",
"%	c #F6F196",
"&	c #E4BC7F",
"*	c #FFBF2C",
"=	c #F4F3BD",
"-	c #E6B976",
";	c #E4DF82",
">	c #F8D0B8",
",	c #314987",
"'	c #E4AF8B",
")	c #4269CD",
"!	c #D09870",
"~	c #232323",
"{	c #CEAE4E",
"]	c #B7454F",
"^	c #E2BF57",
"/	c #BCBCBC",
"(	c #302950",
"_	c #3B3362",
"                                        ",
"                                        ",
"                                        ",
"             ..                         ",
"            .++..                       ",
"            .++++.....                  ",
"           .+++++++.++...               ",
"           .++@++++.+++++..             ",
"           .###@++++.++++++.            ",
"           .$$$#@@++.+++++++.           ",
"           .$$$$##@+.@++++++.           ",
"            ....$$#@+.@@+++++.          ",
"            .%%&..$..*.@@@+++.          ",
"            .==%&&.**$$.@@@@+.          ",
"            .===%%.$$$$......           ",
"            .-%%%%.$$..&&%;.            ",
"             .-.--%..%%%==%.            ",
"             ..>..-=%..%=%%.            ",
"             .>>,+.=-.'.%%.             ",
"            .>>>)+.-.>'.%;.             ",
"            .''>>>>.>'!;%;.             ",
"             .!!!!!!!!!;%=.             ",
"              ..!!!!!!.;%=.             ",
"                ......;%%%.             ",
"                  .~{.;%%;.             ",
"                 .]^++.%%;.             ",
"                 .+.++.;%%.             ",
"                .^^.+/.&%.              ",
"                .$.^{./.;.              ",
"                .(.'!./.&.              ",
"                ._{../+..               ",
"                ._$^/++.                ",
"                ._${+++/.               ",
"                ._$~^++/.               ",
"                ._$/{+++.               ",
"                .$$+{+++.               ",
"                 ..+....                ",
"                  ..                    ",
"                                        ",
"                                        "};
