/* XPM */
static char * prissfront_xpm[] = {
"40 40 25 1",
" 	c #FFC0CB",
".	c #000000",
"+	c #FFFFFF",
"@	c #C1C1C1",
"#	c #DCC34D",
"$	c #54478C",
"%	c #FFBF2C",
"&	c #E4BC7F",
"*	c #F6F196",
"=	c #F4F3BD",
"-	c #E6B976",
";	c #F8D0B8",
">	c #D09870",
",	c #314987",
"'	c #4269CD",
")	c #E4AF8B",
"!	c #E4DF82",
"~	c #BCBCBC",
"{	c #E2BF57",
"]	c #CEAE4E",
"^	c #232323",
"/	c #B7454F",
"(	c #302950",
"_	c #3B3362",
":	c #FCF8DF",
"                                        ",
"                                        ",
"                                        ",
"                                        ",
"                                        ",
"                  ....                  ",
"                ..++++..                ",
"              ..++++++++..              ",
"             .++++++++++++.             ",
"             .++++@++@++++.             ",
"            .++++@####@++++.            ",
"            .++@@#$$$$#@@++.            ",
"           .++@##$$$$$$##@++.           ",
"          .%.@#$$......$$#@.%.          ",
"          ..%.$..&****&..$.%..          ",
"         .$$.%.&&*===**&&.%.$$.         ",
"         .$$$.&****===***&.$$$.         ",
"          .$$.*=**.-****=*.$$.          ",
"           ...*=-.;.-.--=*...           ",
"           .>.=-..;;.;..-=.>.           ",
"            ..*.+,;;;;,+.*..            ",
"            ..-.+';;;;'+.-..            ",
"            .*.>);;;;;;)>.*.            ",
"            .**..);>>;)..**.            ",
"            .!=.~......~.=!.            ",
"            .!.++{]^^]{++.!.            ",
"            ..++++{//{++++..            ",
"            ..++.~++++~.++..            ",
"            .+~~.~+{{+~.~~+.            ",
"            .]{.~+{$${+~.{].            ",
"            .)>.~+]((]+~.>).            ",
"             ..~+{(__${+~..             ",
"              .++](_$$]++.              ",
"              .++](_$$]++.              ",
"              .+{^(_$$^{+.              ",
"              .+]~(_$$~]+.              ",
"              .].:($$$:.].              ",
"               . .:..:. .               ",
"                 ..  ..                 ",
"                                        "};
