/* XPM */
static char * run1_xpm[] = {
"75 75 12 1",
" 	c #FFC0CB",
".	c #1B1A20",
"+	c #AD4282",
"@	c #F5BFA1",
"#	c #222034",
"$	c #792D47",
"%	c #94434C",
"&	c #E7AE7F",
"*	c #562745",
"=	c #F9F5DD",
"-	c #E3C5A4",
";	c #E58C85",
"                                                                           ",
"                                                                           ",
"                                                                           ",
"                                                                           ",
"                                                                           ",
"                                                                           ",
"                                                                           ",
"                             ...............                               ",
"                        ........................                           ",
"                        ........................                           ",
"                     .........++@@@@@@@@@+.........                        ",
"                    ......+@@@@@@@@@@@@@@@@@@++......                      ",
"                    ......+@@@@@@@@@@@@@@@@@@++......                      ",
"                 ......+@@@@@@@@@@@@@@@@@@@@@@@@++......                   ",
"               ......@@@@@@@@@@@@@@@@@@@@@@@@@@@@@@......                  ",
"               ......@@@@@@@@@@@@@@@@@@@@@@@@@@@@@@......                  ",
"              ....++@@@@@@@@@@@@@@@@@@@@@@@@@@@@@@@@@+.....                ",
"            .....@@@@@@@@@######################@@@@@@@@....               ",
"            .....@@@@@@@@@######################@@@@@@@@....               ",
"            ...++@@@@@@@##########################@@@@@@+...               ",
"           ....@@@@@@@@###$%%%%%%%%%%%%%%%%%%%%$###@@@@@@.....             ",
"           ....@@@@@@@@###$%%%%%%%%%%%%%%%%%%%%$###@@@@@@.....             ",
"         .....@@@@@@@@@###%####################%###@@@@@@@@....            ",
"         ...++@@@@@@@###%%%%%##################%$$###@@@@@@+...            ",
"         ...++@@@@@@@###%%%%%##################%$$###@@@@@@+...            ",
"        ....@@@@@@@@@###$$%%%%%%%%%%%%%%%%%%%%%%%%###@@@@@@@.....          ",
"        ...+@@@@@@@@@###$$$%%%%%%%%%%%%%%%%%%%%%$$###@@@@@@@++...          ",
"        ...+@@@@@@@@@###$$$%%%%%%%%%%%%%%%%%%%%%$$###@@@@@@@++...          ",
"        ...@@@@@@@@@@@@###$$$$$$%%%%%%%%%%$$%$$$###@@@@@@@@@@@...          ",
"      .....@@@@@@@@@@###$$%%%%%%%%%%%%%%%%%%%%%%$$###@@@@@@@@@....         ",
"      .....@@@@@@@@@@###$$%%%%%%%%%%%%%%%%%%%%%%$$###@@@@@@@@@....         ",
"      ...++@@@@@@@@@@###$$$$$%%%%%%%%%%%%%%%%$$$$$###@@@@@@@@@+...         ",
"      ...@@@@@@@@@@@@@@############################@@@@@@@@@@@@...         ",
"      ...@@@@@@@@@@@@@@############################@@@@@@@@@@@@...         ",
"      ...@@@@@@@@@@@@@@###%&&&&&&&&&&&&&&&&&&%%###@@@@@@@@@@@@@...         ",
"      ...@@@@@@@@@@@@@@###*$$$$$$$$$$$$$$$$$$$$###@@@@@@@@@@@@@...         ",
"      ...@@@@@@@@@@@@@@###*$$$$$$$$$$$$$$$$$$$$###@@@@@@@@@@@@@...         ",
"      ...@@@@@@@@@@@@@@####*****$$$$$$$$$$$$$$$####@@@@@@@@@@@@...         ",
"      ...@@@@@@@@@@@@@@###***$$$$$$$$$$$$****#########@@@@@@@@@...         ",
"      ...@@@@@@@@@@@@@@###***$$$$$$$$$$$$****#########@@@@@@@@@...         ",
"      ...@@@@@@@@@##@@@###*$$$$$$$$$$$$**$$$$$$$$$*#####@@@@@@@...         ",
"      ...++@@@@@@#==######*$$$$$$$$$$$$$$$$$$$$$$$$$$####@@@@@+...         ",
"      ...++@@@@@@#==######*$$$$$$$$$$$$$$$$$$$$$$$$$$####@@@@@+...         ",
"      .....@@@@@@@###--=###$$$$$$$$$$$$$$$$$$$$$$$$$$$###@@@@@....         ",
"        ...@@@@@@#@@#===###***$$$$$$$$$$$$$$$$$$$$$$$$**###@@@...          ",
"        ...@@@@@@#@@#===###***$$$$$$$$$$$$$$$$$$$$$$$$**###@@@...          ",
"        ...+@@@##=##@#####*$$$$$$$$$$$$$$$$$$$$$$$$$$$$$###@++...          ",
"        ....@@@##=###---##*$$$$$$$$$$$$$$$$$$$$$$$$$$$$$###@.....          ",
"        ....@@@##=###---##*$$$$$$$$$$$$$$$$$$$$$$$$$$$$$###@.....          ",
"         ...++@@@###-===##*$$$$$$$$$$$$$$$$$$$$$$$$$$$**###+...            ",
"         .....@@@@##-==###*$$$$$$********$$$$$$$$$$$$*###@@....            ",
"         .....@@@@##-==###*$$$$$$********$$$$$$$$$$$$*###@@....            ",
"           ....@@@@@###=##*********###****************##@.....             ",
"            ...++@@@@##===#########;;;################;;+...               ",
"            ...++@@@@##===#########;;;################;;+...               ",
"            .....@@@@@@@;;;;;;;;;;;;;;;;;;;;;;;;;;;;;;@@....               ",
"              ....++@@@@@@@@@@@@@@@@@@@@@@@@@@@@@@@@@+.....                ",
"              ....++@@@@@@@@@@@@@@@@@@@@@@@@@@@@@@@@@+.....                ",
"               ......@@@@@@@@@@@@@@@@@@@@@@@@@@@@@@......                  ",
"                 ......+@@@@@@@@@@@@@@@@@@@@@@@@++......                   ",
"                 ......+@@@@@@@@@@@@@@@@@@@@@@@@++......                   ",
"                    ......+@@@@@@@@@@@@@@@@@@++......                      ",
"                     .........++@@@@@@@@@+.........                        ",
"                     .........++@@@@@@@@@+.........                        ",
"                        ........................                           ",
"                             ...............                               ",
"                             ...............                               ",
"                                                                           ",
"                                                                           ",
"                                                                           ",
"                                                                           ",
"                                                                           ",
"                                                                           ",
"                                                                           ",
"                                                                           "};
