/* XPM */
static char * run75_xpm[] = {
"75 75 13 1",
" 	c #FFC0CB",
".	c #FF0000",
"+	c #212025",
"@	c #AA4680",
"#	c #F3BFA1",
"$	c #272537",
"%	c #773248",
"&	c #91464D",
"*	c #E4AE80",
"=	c #562C46",
"-	c #F8F5DD",
";	c #E1C4A4",
">	c #E28C84",
"                                                                           ",
"                                                                           ",
"                                                                           ",
"                                                                           ",
"                         ........................                          ",
"                         ........................                          ",
"                       .............................                       ",
"                    ..........++++++++++++++..........                     ",
"                    ..........+++++++++++++++.........                     ",
"                  .......+++++++++++++++++++++++.........                  ",
"                ......++++++++@@#########@+++++++++.......                 ",
"                ......++++@##################@@+++++......                 ",
"               ......+++++@##################@@++++++.......               ",
"             .....+++++@########################@@++++++.....              ",
"             .....+++##############################++++++....              ",
"            ....+++++##############################++++++......            ",
"            ...+++@@#################################@+++++....            ",
"            ...++#########$$$$$$$$$$$$$$$$$$$$$$########++++...            ",
"          ...++++#########$$$$$$$$$$$$$$$$$$$$$$########++++....           ",
"         ....++@@#######$$$$$$$$$$$$$$$$$$$$$$$$$$######@+++....           ",
"         ....++########$$$%&&&&&&&&&&&&&&&&&&&&%$$$######++++...           ",
"       .....+++########$$$%&&&&&&&&&&&&&&&&&&&&%$$$######+++++.....        ",
"       ...++++#########$$$&$$$$$$$$$$$$$$$$$$$$&$$$########++++....        ",
"       ...++@@#######$$$&&&&&$$$$$$$$$$$$$$$$$$&%%$$$######@+++....        ",
"      ....++@@#######$$$&&&&&$$$$$$$$$$$$$$$$$$&%%$$$######@+++......      ",
"      ...+++#########$$$%%&&&&&&&&&&&&&&&&&&&&&&&&$$$#######+++++....      ",
"      ...++@#########$$$%%%&&&&&&&&&&&&&&&&&&&&&%%$$$#######@@+++....      ",
"      ...++@#########$$$%%%&&&&&&&&&&&&&&&&&&&&&%%$$$#######@@+++....      ",
"    .....++############$$$%%%%%%&&&&&&&&&&%%&%%%$$$###########+++.....     ",
"    .....++##########$$$%%&&&&&&&&&&&&&&&&&&&&&&%%$$$#########++++....     ",
"    ...++++##########$$$%%&&&&&&&&&&&&&&&&&&&&&&%%$$$#########++++....     ",
"    ...++@@##########$$$%%%%%&&&&&&&&&&&&&&&&%%%%%$$$#########@+++....     ",
"    ...++##############$$$$$$$$$$$$$$$$$$$$$$$$$$$$############+++....     ",
"    ...++##############$$$$$$$$$$$$$$$$$$$$$$$$$$$$############+++....     ",
"    ...++##############$$$&******************&&$$$#############+++....     ",
"    ...++##############$$$=%%%%%%%%%%%%%%%%%%%%$$$#############+++....     ",
"    ...++##############$$$=%%%%%%%%%%%%%%%%%%%%$$$#############+++....     ",
"    ...++##############$$$$=====%%%%%%%%%%%%%%%$$$$############+++....     ",
"    ...++##############$$$===%%%%%%%%%%%%====$$$$$$$$$#########+++....     ",
"    ...++##############$$$===%%%%%%%%%%%%====$$$$$$$$$#########+++....     ",
"    ...++#########$$###$$$=%%%%%%%%%%%%==%%%%%%%%%=$$$$$#######+++....     ",
"    ...++@@######$--$$$$$$=%%%%%%%%%%%%%%%%%%%%%%%%%%$$$$#####@+++....     ",
"    ...++@@######$--$$$$$$=%%%%%%%%%%%%%%%%%%%%%%%%%%$$$$#####@+++....     ",
"    ...++++#######$$$;;-$$$%%%%%%%%%%%%%%%%%%%%%%%%%%%$$$#####++++....     ",
"    ....+++######$##$---$$$===%%%%%%%%%%%%%%%%%%%%%%%%==$$$###+++.....     ",
"    .....++######$##$---$$$===%%%%%%%%%%%%%%%%%%%%%%%%==$$$###+++.....     ",
"      ...++@###$$-$$#$$$$$=%%%%%%%%%%%%%%%%%%%%%%%%%%%%%$$$#@@+++....      ",
"      ...+++###$$-$$$;;;$$=%%%%%%%%%%%%%%%%%%%%%%%%%%%%%$$$#+++++....      ",
"      ...+++###$$-$$$;;;$$=%%%%%%%%%%%%%%%%%%%%%%%%%%%%%$$$#+++++....      ",
"      ....++@@###$$$;---$$=%%%%%%%%%%%%%%%%%%%%%%%%%%%==$$$@+++......      ",
"      ....++++####$$;--$$$=%%%%%%========%%%%%%%%%%%%=$$$##++++......      ",
"       ...++++####$$;--$$$=%%%%%%========%%%%%%%%%%%%=$$$##++++....        ",
"       .....+++#####$$$-$$=========$$$================$$#+++++.....        ",
"       .....+++@@####$$---$$$$$$$$$>>>$$$$$$$$$$$$$$$$>>@+++.......        ",
"         ....++@@####$$---$$$$$$$$$>>>$$$$$$$$$$$$$$$$>>@+++......         ",
"         ....++++#######>>>>>>>>>>>>>>>>>>>>>>>>>>>>>>##++++......         ",
"         .....++++@@#################################@+++++.......         ",
"          .....+++@@#################################@+++++.....           ",
"            ....+++++##############################++++++......            ",
"            .....++++++@########################@@++++++.......            ",
"             .....+++++@########################@@++++++.....              ",
"               ......+++++@##################@@++++++.......               ",
"               ......+++++++++@@#########@+++++++++.........               ",
"                ......++++++++@@#########@+++++++++.......                 ",
"                  .......+++++++++++++++++++++++........                   ",
"                  ...........+++++++++++++++............                   ",
"                    ..........++++++++++++++...........                    ",
"                      ...............................                      ",
"                      ...............................                      ",
"                         .........................                         ",
"                                                                           ",
"                                                                           ",
"                                                                           ",
"                                                                           ",
"                                                                           "};
