/* XPM */
static char * wall2_xpm[] = {
"40 40 9 1",
" 	c #4A3C32",
".	c #382623",
"+	c #191716",
"@	c #6C4834",
"#	c #251923",
"$	c #815C41",
"%	c #8A5034",
"&	c #B08B5A",
"*	c #4C3324",
" .++.  @@+    .+     @@@@+   #..    @++.",
" .....   @+ ...+@    @@@@+ ..+. ++ @$++ ",
" .+++.#  @+ ..+ .@@@@@@@@  ....@  + @++ ",
" .+++.#  @+ ..+ .@@@@@@@@  ....@  + @++ ",
"....+##   + ..+  ....@%%     . @  + @   ",
".#...+###.  +++     .@%%&+     @  .+@@@ ",
"#@...+###.* +++ .++  .@@$ @    @  .+   .",
"#@   ++##.* .. @...+ .@@%&+    @...+ ...",
"#@   ++##.* .. @...+ .@@%&+    @...+ ...",
"@$   .+##.* .. @...+  ..@$+@@ @ ..+ .++#",
".%  ..#..*+ ** @ ..+  ..@@%++  .++#.+##@",
"@$   .#..*+   *@...+    .@@  ..###......",
".@$$ .#..+    *@...@+    ..**@@... @....",
".@$$ .#..+    *@...@+    ..**@@... @....",
"..%%@.#..+@   *@ **%+ ..+* **%  @@ @ ...",
"+...@ .++ @   * *@@+  ##+**%%$+ @@* $...",
"+.@@       @  * @&&+  ##+*@$$+ @  * @$$&",
"$+..@  ..  @  **%++ @.##. %++*****  .@@@",
"$+..@  ..  @  **%++ @.##. %++*****  .@@@",
"@#..@ ###..   *@+    #.... ++**   @..@@%",
"$#..@ ###.*.  *%+  @..  @ .****@.... ..@",
"%#@@  ###***@@     @ .  @ ... *.+++.....",
"# @@  #..*@*  @@ @@ ..  @.... .+....@@@$",
"# @@  #..*@*  @@ @@ ..  @.... .+....@@@$",
"# @@ .#..*@*        ....  .  @+... ..@@+",
"     .#..*@@  +     . .....@@.+.  .@.$$#",
" +  @@.##+$$  + @  .#$@@  ...+..++ . ## ",
" +@@..@...++++ @@  .#.@@  .++. .++      ",
" +@@..@...++++ @@  .#.@@  .++. .++      ",
"+.$$@..@@...   @@  .##$$@ .++. ...+ @   ",
"+.@@$ ...@..  @@    ##%%@@ ++.  ..+ @@@ ",
"+.@@$@   .@   @@ @@ .#..@@      ...+ @@ ",
"....@$@@@ .@@@@  @@ .###$@@  .    .+   +",
"....@$@@@ .@@@@  @@ .###$@@  .    .+   +",
"..  .@$   @@@@@ @.. .+## @   .     +   +",
"..   ....   @@. @..  +##.    .       ++@",
".... . +++..@@.++... +##..   ..      @@@",
"#.            ...##.. ###..##..@@@ +@@@.",
"#.            ...##.. ###..##..@@@ +@@@.",
"#.  #. ...@@##.....#..  ##.  ..@@@+#@..."};
